<svg xmlns="http://www.w3.org/2000/svg" xmlns:xlink="http://www.w3.org/1999/xlink" contentStyleType="text/css" height="1014px" preserveAspectRatio="none" style="width:1136px;height:1014px;background:#FFFFFF;" version="1.1" viewBox="0 0 1136 1014" width="1136px" zoomAndPan="magnify"><defs/><g><text fill="#000000" font-family="sans-serif" font-size="14" font-weight="bold" lengthAdjust="spacing" textLength="249" x="450" y="27.9951">Mobile App Authentication Flow</text><rect fill="none" height="429.1953" style="stroke:#000000;stroke-width:1.5;" width="977" x="10" y="239.2578"/><line style="stroke:#181818;stroke-width:0.5;stroke-dasharray:5.0,5.0;" x1="39" x2="39" y1="118.5938" y2="933.7813"/><line style="stroke:#181818;stroke-width:0.5;stroke-dasharray:5.0,5.0;" x1="202" x2="202" y1="118.5938" y2="933.7813"/><line style="stroke:#181818;stroke-width:0.5;stroke-dasharray:5.0,5.0;" x1="415" x2="415" y1="118.5938" y2="933.7813"/><line style="stroke:#181818;stroke-width:0.5;stroke-dasharray:5.0,5.0;" x1="662" x2="662" y1="118.5938" y2="933.7813"/><line style="stroke:#181818;stroke-width:0.5;stroke-dasharray:5.0,5.0;" x1="893" x2="893" y1="118.5938" y2="933.7813"/><line style="stroke:#181818;stroke-width:0.5;stroke-dasharray:5.0,5.0;" x1="1066" x2="1066" y1="118.5938" y2="933.7813"/><text fill="#000000" font-family="sans-serif" font-size="14" lengthAdjust="spacing" textLength="32" x="20" y="115.292">User</text><ellipse cx="39" cy="50.7969" fill="#E2E2F0" rx="8" ry="8" style="stroke:#181818;stroke-width:0.5;"/><path d="M39,58.7969 L39,85.7969 M26,66.7969 L52,66.7969 M39,85.7969 L26,100.7969 M39,85.7969 L52,100.7969 " fill="none" style="stroke:#181818;stroke-width:0.5;"/><text fill="#000000" font-family="sans-serif" font-size="14" lengthAdjust="spacing" textLength="32" x="20" y="945.7764">User</text><ellipse cx="39" cy="957.5781" fill="#E2E2F0" rx="8" ry="8" style="stroke:#181818;stroke-width:0.5;"/><path d="M39,965.5781 L39,992.5781 M26,973.5781 L52,973.5781 M39,992.5781 L26,1007.5781 M39,992.5781 L52,1007.5781 " fill="none" style="stroke:#181818;stroke-width:0.5;"/><rect fill="#E2E2F0" height="30.2969" rx="2.5" ry="2.5" style="stroke:#181818;stroke-width:0.5;" width="180" x="112" y="87.2969"/><text fill="#000000" font-family="sans-serif" font-size="14" lengthAdjust="spacing" textLength="166" x="119" y="107.292">React Native Mobile App</text><rect fill="#E2E2F0" height="30.2969" rx="2.5" ry="2.5" style="stroke:#181818;stroke-width:0.5;" width="180" x="112" y="932.7813"/><text fill="#000000" font-family="sans-serif" font-size="14" lengthAdjust="spacing" textLength="166" x="119" y="952.7764">React Native Mobile App</text><rect fill="#E2E2F0" height="30.2969" rx="2.5" ry="2.5" style="stroke:#181818;stroke-width:0.5;" width="167" x="332" y="87.2969"/><text fill="#000000" font-family="sans-serif" font-size="14" lengthAdjust="spacing" textLength="153" x="339" y="107.292">Gateway Service (BFF)</text><rect fill="#E2E2F0" height="30.2969" rx="2.5" ry="2.5" style="stroke:#181818;stroke-width:0.5;" width="167" x="332" y="932.7813"/><text fill="#000000" font-family="sans-serif" font-size="14" lengthAdjust="spacing" textLength="153" x="339" y="952.7764">Gateway Service (BFF)</text><rect fill="#E2E2F0" height="30.2969" rx="2.5" ry="2.5" style="stroke:#181818;stroke-width:0.5;" width="246" x="539" y="87.2969"/><text fill="#000000" font-family="sans-serif" font-size="14" lengthAdjust="spacing" textLength="232" x="546" y="107.292">Auth Provider (e.g., OAuth2/OIDC)</text><rect fill="#E2E2F0" height="30.2969" rx="2.5" ry="2.5" style="stroke:#181818;stroke-width:0.5;" width="246" x="539" y="932.7813"/><text fill="#000000" font-family="sans-serif" font-size="14" lengthAdjust="spacing" textLength="232" x="546" y="952.7764">Auth Provider (e.g., OAuth2/OIDC)</text><text fill="#000000" font-family="sans-serif" font-size="14" lengthAdjust="spacing" textLength="161" x="810" y="115.292">User DB / Identity Store</text><path d="M875.5,66.2969 C875.5,56.2969 893.5,56.2969 893.5,56.2969 C893.5,56.2969 911.5,56.2969 911.5,66.2969 L911.5,92.2969 C911.5,102.2969 893.5,102.2969 893.5,102.2969 C893.5,102.2969 875.5,102.2969 875.5,92.2969 L875.5,66.2969 " fill="#E2E2F0" style="stroke:#181818;stroke-width:1.5;"/><path d="M875.5,66.2969 C875.5,76.2969 893.5,76.2969 893.5,76.2969 C893.5,76.2969 911.5,76.2969 911.5,66.2969 " fill="none" style="stroke:#181818;stroke-width:1.5;"/><text fill="#000000" font-family="sans-serif" font-size="14" lengthAdjust="spacing" textLength="161" x="810" y="945.7764">User DB / Identity Store</text><path d="M875.5,959.0781 C875.5,949.0781 893.5,949.0781 893.5,949.0781 C893.5,949.0781 911.5,949.0781 911.5,959.0781 L911.5,985.0781 C911.5,995.0781 893.5,995.0781 893.5,995.0781 C893.5,995.0781 875.5,995.0781 875.5,985.0781 L875.5,959.0781 " fill="#E2E2F0" style="stroke:#181818;stroke-width:1.5;"/><path d="M875.5,959.0781 C875.5,969.0781 893.5,969.0781 893.5,969.0781 C893.5,969.0781 911.5,969.0781 911.5,959.0781 " fill="none" style="stroke:#181818;stroke-width:1.5;"/><rect fill="#E2E2F0" height="30.2969" rx="2.5" ry="2.5" style="stroke:#181818;stroke-width:0.5;" width="128" x="1002" y="87.2969"/><text fill="#000000" font-family="sans-serif" font-size="14" lengthAdjust="spacing" textLength="114" x="1009" y="107.292">BusinessService</text><rect fill="#E2E2F0" height="30.2969" rx="2.5" ry="2.5" style="stroke:#181818;stroke-width:0.5;" width="128" x="1002" y="932.7813"/><text fill="#000000" font-family="sans-serif" font-size="14" lengthAdjust="spacing" textLength="114" x="1009" y="952.7764">BusinessService</text><polygon fill="#181818" points="190,175.9922,200,179.9922,190,183.9922,194,179.9922" style="stroke:#181818;stroke-width:1.0;"/><line style="stroke:#181818;stroke-width:1.0;" x1="39" x2="196" y1="179.9922" y2="179.9922"/><text fill="#000000" font-family="sans-serif" font-size="13" lengthAdjust="spacing" textLength="41" x="100" y="144.6606">enters</text><text fill="#000000" font-family="sans-serif" font-size="13" lengthAdjust="spacing" textLength="70" x="85.5" y="159.7935">credentials</text><text fill="#000000" font-family="sans-serif" font-size="13" lengthAdjust="spacing" textLength="139" x="51" y="174.9263">(username/password)</text><polygon fill="#181818" points="403.5,220.2578,413.5,224.2578,403.5,228.2578,407.5,224.2578" style="stroke:#181818;stroke-width:1.0;"/><line style="stroke:#181818;stroke-width:1.0;" x1="202" x2="409.5" y1="224.2578" y2="224.2578"/><text fill="#000000" font-family="sans-serif" font-size="13" lengthAdjust="spacing" textLength="34" x="291.75" y="204.0591">POST</text><text fill="#000000" font-family="sans-serif" font-size="13" lengthAdjust="spacing" textLength="67" x="275.25" y="219.1919">/auth/login</text><path d="M10,239.2578 L74,239.2578 L74,246.3906 L64,256.3906 L10,256.3906 L10,239.2578 " fill="#EEEEEE" style="stroke:#000000;stroke-width:1.5;"/><rect fill="none" height="429.1953" style="stroke:#000000;stroke-width:1.5;" width="977" x="10" y="239.2578"/><text fill="#000000" font-family="sans-serif" font-size="13" font-weight="bold" lengthAdjust="spacing" textLength="19" x="25" y="252.3247">alt</text><text fill="#000000" font-family="sans-serif" font-size="11" font-weight="bold" lengthAdjust="spacing" textLength="161" x="89" y="251.4683">[Credentials-based Auth]</text><polygon fill="#181818" points="650,288.6563,660,292.6563,650,296.6563,654,292.6563" style="stroke:#181818;stroke-width:1.0;"/><line style="stroke:#181818;stroke-width:1.0;" x1="415.5" x2="656" y1="292.6563" y2="292.6563"/><text fill="#000000" font-family="sans-serif" font-size="13" lengthAdjust="spacing" textLength="52" x="512.75" y="272.4575">Validate</text><text fill="#000000" font-family="sans-serif" font-size="13" lengthAdjust="spacing" textLength="70" x="503.75" y="287.5903">credentials</text><polygon fill="#181818" points="881.5,332.9219,891.5,336.9219,881.5,340.9219,885.5,336.9219" style="stroke:#181818;stroke-width:1.0;"/><line style="stroke:#181818;stroke-width:1.0;" x1="662" x2="887.5" y1="336.9219" y2="336.9219"/><text fill="#000000" font-family="sans-serif" font-size="13" lengthAdjust="spacing" textLength="39" x="758.25" y="316.7231">Check</text><text fill="#000000" font-family="sans-serif" font-size="13" lengthAdjust="spacing" textLength="92" x="731.75" y="331.856">user/password</text><polygon fill="#181818" points="673,362.0547,663,366.0547,673,370.0547,669,366.0547" style="stroke:#181818;stroke-width:1.0;"/><line style="stroke:#181818;stroke-width:1.0;stroke-dasharray:2.0,2.0;" x1="667" x2="892.5" y1="366.0547" y2="366.0547"/><text fill="#000000" font-family="sans-serif" font-size="13" lengthAdjust="spacing" textLength="30" x="739.25" y="360.9888">User</text><text fill="#000000" font-family="sans-serif" font-size="13" lengthAdjust="spacing" textLength="4" x="769.25" y="360.9888"> </text><text fill="#000000" font-family="sans-serif" font-size="13" lengthAdjust="spacing" textLength="10" x="773.25" y="360.9888">is</text><text fill="#000000" font-family="sans-serif" font-size="13" lengthAdjust="spacing" textLength="4" x="783.25" y="360.9888"> </text><text fill="#000000" font-family="sans-serif" font-size="13" lengthAdjust="spacing" textLength="29" x="787.25" y="360.9888">valid</text><polygon fill="#181818" points="426.5,406.3203,416.5,410.3203,426.5,414.3203,422.5,410.3203" style="stroke:#181818;stroke-width:1.0;"/><line style="stroke:#181818;stroke-width:1.0;stroke-dasharray:2.0,2.0;" x1="420.5" x2="661" y1="410.3203" y2="410.3203"/><text fill="#000000" font-family="sans-serif" font-size="13" lengthAdjust="spacing" textLength="33" x="490.75" y="390.1216">Issue</text><text fill="#000000" font-family="sans-serif" font-size="13" lengthAdjust="spacing" textLength="4" x="523.75" y="390.1216"> </text><text fill="#000000" font-family="sans-serif" font-size="13" lengthAdjust="spacing" textLength="44" x="527.75" y="390.1216">access</text><text fill="#000000" font-family="sans-serif" font-size="13" lengthAdjust="spacing" textLength="4" x="571.75" y="390.1216"> </text><text fill="#000000" font-family="sans-serif" font-size="13" lengthAdjust="spacing" textLength="11" x="575.75" y="390.1216">&amp;</text><text fill="#000000" font-family="sans-serif" font-size="13" lengthAdjust="spacing" textLength="45" x="496.25" y="405.2544">refresh</text><text fill="#000000" font-family="sans-serif" font-size="13" lengthAdjust="spacing" textLength="4" x="541.25" y="405.2544"> </text><text fill="#000000" font-family="sans-serif" font-size="13" lengthAdjust="spacing" textLength="36" x="545.25" y="405.2544">token</text><line style="stroke:#000000;stroke-width:1.0;stroke-dasharray:2.0,2.0;" x1="10" x2="987" y1="419.3203" y2="419.3203"/><text fill="#000000" font-family="sans-serif" font-size="11" font-weight="bold" lengthAdjust="spacing" textLength="177" x="15" y="429.5308">[Social Login (OAuth/OIDC)]</text><polygon fill="#181818" points="650,465.3906,660,469.3906,650,473.3906,654,469.3906" style="stroke:#181818;stroke-width:1.0;"/><line style="stroke:#181818;stroke-width:1.0;" x1="202" x2="656" y1="469.3906" y2="469.3906"/><text fill="#000000" font-family="sans-serif" font-size="13" lengthAdjust="spacing" textLength="52" x="397.5" y="449.1919">Redirect</text><text fill="#000000" font-family="sans-serif" font-size="13" lengthAdjust="spacing" textLength="4" x="449.5" y="449.1919"> </text><text fill="#000000" font-family="sans-serif" font-size="13" lengthAdjust="spacing" textLength="13" x="453.5" y="449.1919">to</text><text fill="#000000" font-family="sans-serif" font-size="13" lengthAdjust="spacing" textLength="30" x="399" y="464.3247">login</text><text fill="#000000" font-family="sans-serif" font-size="13" lengthAdjust="spacing" textLength="4" x="429" y="464.3247"> </text><text fill="#000000" font-family="sans-serif" font-size="13" lengthAdjust="spacing" textLength="32" x="433" y="464.3247">page</text><polygon fill="#181818" points="650,509.6563,660,513.6563,650,517.6563,654,513.6563" style="stroke:#181818;stroke-width:1.0;"/><line style="stroke:#181818;stroke-width:1.0;" x1="39" x2="656" y1="513.6563" y2="513.6563"/><text fill="#000000" font-family="sans-serif" font-size="13" lengthAdjust="spacing" textLength="30" x="313.5" y="493.4575">Logs</text><text fill="#000000" font-family="sans-serif" font-size="13" lengthAdjust="spacing" textLength="4" x="343.5" y="493.4575"> </text><text fill="#000000" font-family="sans-serif" font-size="13" lengthAdjust="spacing" textLength="11" x="347.5" y="493.4575">in</text><text fill="#000000" font-family="sans-serif" font-size="13" lengthAdjust="spacing" textLength="4" x="358.5" y="493.4575"> </text><text fill="#000000" font-family="sans-serif" font-size="13" lengthAdjust="spacing" textLength="25" x="362.5" y="493.4575">with</text><text fill="#000000" font-family="sans-serif" font-size="13" lengthAdjust="spacing" textLength="55" x="305" y="508.5903">Google's</text><text fill="#000000" font-family="sans-serif" font-size="13" lengthAdjust="spacing" textLength="4" x="360" y="508.5903"> </text><text fill="#000000" font-family="sans-serif" font-size="13" lengthAdjust="spacing" textLength="32" x="364" y="508.5903">OIDC</text><polygon fill="#181818" points="213,553.9219,203,557.9219,213,561.9219,209,557.9219" style="stroke:#181818;stroke-width:1.0;"/><line style="stroke:#181818;stroke-width:1.0;stroke-dasharray:2.0,2.0;" x1="207" x2="661" y1="557.9219" y2="557.9219"/><text fill="#000000" font-family="sans-serif" font-size="13" lengthAdjust="spacing" textLength="30" x="417" y="537.7231">Auth</text><text fill="#000000" font-family="sans-serif" font-size="13" lengthAdjust="spacing" textLength="71" x="396.5" y="552.856">code/token</text><polygon fill="#181818" points="403.5,598.1875,413.5,602.1875,403.5,606.1875,407.5,602.1875" style="stroke:#181818;stroke-width:1.0;"/><line style="stroke:#181818;stroke-width:1.0;" x1="202" x2="409.5" y1="602.1875" y2="602.1875"/><text fill="#000000" font-family="sans-serif" font-size="13" lengthAdjust="spacing" textLength="33" x="268.25" y="581.9888">Send</text><text fill="#000000" font-family="sans-serif" font-size="13" lengthAdjust="spacing" textLength="4" x="301.25" y="581.9888"> </text><text fill="#000000" font-family="sans-serif" font-size="13" lengthAdjust="spacing" textLength="44" x="305.25" y="581.9888">access</text><text fill="#000000" font-family="sans-serif" font-size="13" lengthAdjust="spacing" textLength="36" x="290.75" y="597.1216">token</text><polygon fill="#181818" points="650,627.3203,660,631.3203,650,635.3203,654,631.3203" style="stroke:#181818;stroke-width:1.0;"/><line style="stroke:#181818;stroke-width:1.0;" x1="415.5" x2="656" y1="631.3203" y2="631.3203"/><text fill="#000000" font-family="sans-serif" font-size="13" lengthAdjust="spacing" textLength="36" x="500.75" y="626.2544">Verify</text><text fill="#000000" font-family="sans-serif" font-size="13" lengthAdjust="spacing" textLength="4" x="536.75" y="626.2544"> </text><text fill="#000000" font-family="sans-serif" font-size="13" lengthAdjust="spacing" textLength="36" x="540.75" y="626.2544">token</text><polygon fill="#181818" points="426.5,656.4531,416.5,660.4531,426.5,664.4531,422.5,660.4531" style="stroke:#181818;stroke-width:1.0;"/><line style="stroke:#181818;stroke-width:1.0;stroke-dasharray:2.0,2.0;" x1="420.5" x2="661" y1="660.4531" y2="660.4531"/><text fill="#000000" font-family="sans-serif" font-size="13" lengthAdjust="spacing" textLength="38" x="503.25" y="655.3872">Token</text><text fill="#000000" font-family="sans-serif" font-size="13" lengthAdjust="spacing" textLength="4" x="541.25" y="655.3872"> </text><text fill="#000000" font-family="sans-serif" font-size="13" lengthAdjust="spacing" textLength="29" x="545.25" y="655.3872">valid</text><polygon fill="#181818" points="213,722.8516,203,726.8516,213,730.8516,209,726.8516" style="stroke:#181818;stroke-width:1.0;"/><line style="stroke:#181818;stroke-width:1.0;stroke-dasharray:2.0,2.0;" x1="207" x2="414.5" y1="726.8516" y2="726.8516"/><text fill="#000000" font-family="sans-serif" font-size="13" lengthAdjust="spacing" textLength="30" x="270.25" y="691.52">Auth</text><text fill="#000000" font-family="sans-serif" font-size="13" lengthAdjust="spacing" textLength="4" x="300.25" y="691.52"> </text><text fill="#000000" font-family="sans-serif" font-size="13" lengthAdjust="spacing" textLength="43" x="304.25" y="691.52">tokens</text><text fill="#000000" font-family="sans-serif" font-size="13" lengthAdjust="spacing" textLength="30" x="269.25" y="706.6528">(JWT,</text><text fill="#000000" font-family="sans-serif" font-size="13" lengthAdjust="spacing" textLength="4" x="299.25" y="706.6528"> </text><text fill="#000000" font-family="sans-serif" font-size="13" lengthAdjust="spacing" textLength="45" x="303.25" y="706.6528">refresh</text><text fill="#000000" font-family="sans-serif" font-size="13" lengthAdjust="spacing" textLength="41" x="288.25" y="721.7856">token)</text><polygon fill="#181818" points="403.5,767.1172,413.5,771.1172,403.5,775.1172,407.5,771.1172" style="stroke:#181818;stroke-width:1.0;"/><line style="stroke:#181818;stroke-width:1.0;" x1="202" x2="409.5" y1="771.1172" y2="771.1172"/><text fill="#000000" font-family="sans-serif" font-size="13" lengthAdjust="spacing" textLength="52" x="266.25" y="750.9185">Request</text><text fill="#000000" font-family="sans-serif" font-size="13" lengthAdjust="spacing" textLength="4" x="318.25" y="750.9185"> </text><text fill="#000000" font-family="sans-serif" font-size="13" lengthAdjust="spacing" textLength="29" x="322.25" y="750.9185">data</text><text fill="#000000" font-family="sans-serif" font-size="13" lengthAdjust="spacing" textLength="18" x="277.25" y="766.0513">(w/</text><text fill="#000000" font-family="sans-serif" font-size="13" lengthAdjust="spacing" textLength="4" x="295.25" y="766.0513"> </text><text fill="#000000" font-family="sans-serif" font-size="13" lengthAdjust="spacing" textLength="41" x="299.25" y="766.0513">token)</text><line style="stroke:#181818;stroke-width:1.0;" x1="415.5" x2="457.5" y1="815.3828" y2="815.3828"/><line style="stroke:#181818;stroke-width:1.0;" x1="457.5" x2="457.5" y1="815.3828" y2="828.3828"/><line style="stroke:#181818;stroke-width:1.0;" x1="416.5" x2="457.5" y1="828.3828" y2="828.3828"/><polygon fill="#181818" points="426.5,824.3828,416.5,828.3828,426.5,832.3828,422.5,828.3828" style="stroke:#181818;stroke-width:1.0;"/><text fill="#000000" font-family="sans-serif" font-size="13" lengthAdjust="spacing" textLength="52" x="422.5" y="795.1841">Validate</text><text fill="#000000" font-family="sans-serif" font-size="13" lengthAdjust="spacing" textLength="4" x="474.5" y="795.1841"> </text><text fill="#000000" font-family="sans-serif" font-size="13" lengthAdjust="spacing" textLength="44" x="478.5" y="795.1841">access</text><text fill="#000000" font-family="sans-serif" font-size="13" lengthAdjust="spacing" textLength="36" x="454.5" y="810.3169">token</text><polygon fill="#181818" points="1054,853.5156,1064,857.5156,1054,861.5156,1058,857.5156" style="stroke:#181818;stroke-width:1.0;"/><line style="stroke:#181818;stroke-width:1.0;" x1="415.5" x2="1060" y1="857.5156" y2="857.5156"/><text fill="#000000" font-family="sans-serif" font-size="13" lengthAdjust="spacing" textLength="35" x="706.75" y="852.4497">Fetch</text><text fill="#000000" font-family="sans-serif" font-size="13" lengthAdjust="spacing" textLength="4" x="741.75" y="852.4497"> </text><text fill="#000000" font-family="sans-serif" font-size="13" lengthAdjust="spacing" textLength="29" x="745.75" y="852.4497">data</text><polygon fill="#181818" points="426.5,882.6484,416.5,886.6484,426.5,890.6484,422.5,886.6484" style="stroke:#181818;stroke-width:1.0;"/><line style="stroke:#181818;stroke-width:1.0;stroke-dasharray:2.0,2.0;" x1="420.5" x2="1065" y1="886.6484" y2="886.6484"/><text fill="#000000" font-family="sans-serif" font-size="13" lengthAdjust="spacing" textLength="62" x="709.75" y="881.5825">Response</text><polygon fill="#181818" points="213,911.7813,203,915.7813,213,919.7813,209,915.7813" style="stroke:#181818;stroke-width:1.0;"/><line style="stroke:#181818;stroke-width:1.0;stroke-dasharray:2.0,2.0;" x1="207" x2="414.5" y1="915.7813" y2="915.7813"/><text fill="#000000" font-family="sans-serif" font-size="13" lengthAdjust="spacing" textLength="62" x="277.75" y="910.7153">Response</text><!--SRC=[VLHDZzem4BtxLumuj45QDhkLUk5G2LYnekeM16nxzZgpmIBOgSU1RdzznuQ4XFsu08xVU_FUp0JQQbDA9tT0-AT2e_01YMIEeqBd1XGQZqvGW-9FhvKkfV4BcMNQv73xjNM_atzF0Ylz3-7svaO8hts1y62VD7-DoX96bT-mi5RIQsjWMjY3459vww3tIEXw80d23z4g1xqbCWP-CcdVbeleuv5FNSgzz7YGBx12jzSA8HbFf_r8EDrquS4OB9pTwmmT97YTNr_1F3pzaivdTvCZDPnhaCYabq-IyEWSxiQGmYmBwJoNvKWOEVMZ-4I8Y1ryEzk68SHM4oY74IiBWgHYd94xJ4j9TB0kwuipXVbrlY4ivgirf9AjfONDjU665XucPx51S9b5ym8Q8ckqux3GBrbe3eLj8qpee9ZL2SIqoGRL5eBVnYkpkgZ1wsgn4PfW7wg-AjD9E2Eg4AHIl5_m2Hm-EwGDUBj58x3W4QoiOhVm8-I79CxjE3OMxhJjmiGIC-sGTyjRYCtZDS-HIVMOBl1SW81H1ythSczjNk1dWb3fhGJj6SS5KpR3z6ZxmjSvx0fDLcUjeH_C39r-Vcc07pHn7I2dRdC98HhHjvn6GLx3xx_NLzs6zyLxYxWC_oFa8RmOa1pI6jzoVmOtozQ9seAEAzA6R-eNU0XJz6eJrSNbvU3229NM4BuRiGRy1m00]--></g></svg>