<svg xmlns="http://www.w3.org/2000/svg" xmlns:xlink="http://www.w3.org/1999/xlink" contentStyleType="text/css" height="1012px" preserveAspectRatio="none" style="width:1682px;height:1012px;background:#FFFFFF;" version="1.1" viewBox="0 0 1682 1012" width="1682px" zoomAndPan="magnify"><defs/><g><text fill="#000000" font-family="sans-serif" font-size="14" font-weight="bold" lengthAdjust="spacing" textLength="473" x="597.5" y="22.9951">Target Software Infrastructure (Kubernetes on Talos Linux)</text><!--cluster Talos Linux OS--><g id="cluster_Talos Linux OS"><polygon fill="none" points="16,53.2969,26,43.2969,1293,43.2969,1293,885.7769,1283,895.7769,16,895.7769,16,53.2969" style="stroke:#181818;stroke-width:1.0;"/><line style="stroke:#181818;stroke-width:1.0;" x1="1283" x2="1293" y1="53.2969" y2="43.2969"/><line style="stroke:#181818;stroke-width:1.0;" x1="16" x2="1283" y1="53.2969" y2="53.2969"/><line style="stroke:#181818;stroke-width:1.0;" x1="1283" x2="1283" y1="53.2969" y2="895.7769"/><text fill="#000000" font-family="sans-serif" font-size="14" font-weight="bold" lengthAdjust="spacing" textLength="116" x="592.5" y="69.292">Talos Linux OS</text></g><!--cluster Talos Kubernetes Cluster--><g id="cluster_Talos Kubernetes Cluster"><polygon fill="none" points="40,101.2969,50,91.2969,1269,91.2969,1269,861.7769,1259,871.7769,40,871.7769,40,101.2969" style="stroke:#181818;stroke-width:1.0;"/><line style="stroke:#181818;stroke-width:1.0;" x1="1259" x2="1269" y1="101.2969" y2="91.2969"/><line style="stroke:#181818;stroke-width:1.0;" x1="40" x2="1259" y1="101.2969" y2="101.2969"/><line style="stroke:#181818;stroke-width:1.0;" x1="1259" x2="1259" y1="101.2969" y2="871.7769"/><text fill="#000000" font-family="sans-serif" font-size="14" font-weight="bold" lengthAdjust="spacing" textLength="202" x="549.5" y="117.292">Talos Kubernetes Cluster</text></g><!--cluster Namespaces (Business Domains)--><g id="cluster_Namespaces (Business Domains)"><rect fill="none" height="591.19" rx="2.5" ry="2.5" style="stroke:#181818;stroke-width:1.0;" width="727" x="64" y="139.2969"/><path d="M334,139.2969 L334,148.5938 L324,158.5938 L64,158.5938 " fill="none" style="stroke:#181818;stroke-width:1.0;"/><text fill="#000000" font-family="sans-serif" font-size="14" font-weight="bold" lengthAdjust="spacing" textLength="260" x="67" y="153.292">Namespaces (Business Domains)</text></g><!--cluster user-namespace--><g id="cluster_user-namespace"><path d="M98.5,190.2969 L231.5,190.2969 A3.75,3.75 0 0 1 234,192.7969 L241,212.5938 L382.5,212.5938 A2.5,2.5 0 0 1 385,215.0938 L385,414.3869 A2.5,2.5 0 0 1 382.5,416.8869 L98.5,416.8869 A2.5,2.5 0 0 1 96,414.3869 L96,192.7969 A2.5,2.5 0 0 1 98.5,190.2969 " fill="none" style="stroke:#000000;stroke-width:1.5;"/><line style="stroke:#000000;stroke-width:1.5;" x1="96" x2="241" y1="212.5938" y2="212.5938"/><text fill="#000000" font-family="sans-serif" font-size="14" font-weight="bold" lengthAdjust="spacing" textLength="132" x="100" y="205.292">user-namespace</text></g><!--cluster community-namespace--><g id="cluster_community-namespace"><path d="M427.5,190.2969 L610.5,190.2969 A3.75,3.75 0 0 1 613,192.7969 L620,212.5938 L756.5,212.5938 A2.5,2.5 0 0 1 759,215.0938 L759,414.3869 A2.5,2.5 0 0 1 756.5,416.8869 L427.5,416.8869 A2.5,2.5 0 0 1 425,414.3869 L425,192.7969 A2.5,2.5 0 0 1 427.5,190.2969 " fill="none" style="stroke:#000000;stroke-width:1.5;"/><line style="stroke:#000000;stroke-width:1.5;" x1="425" x2="620" y1="212.5938" y2="212.5938"/><text fill="#000000" font-family="sans-serif" font-size="14" font-weight="bold" lengthAdjust="spacing" textLength="182" x="429" y="205.292">community-namespace</text></g><!--cluster communication-namespace--><g id="cluster_communication-namespace"><path d="M165.5,481.8869 L381.5,481.8869 A3.75,3.75 0 0 1 384,484.3869 L391,504.1837 L510.5,504.1837 A2.5,2.5 0 0 1 513,506.6837 L513,695.9869 A2.5,2.5 0 0 1 510.5,698.4869 L165.5,698.4869 A2.5,2.5 0 0 1 163,695.9869 L163,484.3869 A2.5,2.5 0 0 1 165.5,481.8869 " fill="none" style="stroke:#000000;stroke-width:1.5;"/><line style="stroke:#000000;stroke-width:1.5;" x1="163" x2="391" y1="504.1837" y2="504.1837"/><text fill="#000000" font-family="sans-serif" font-size="14" font-weight="bold" lengthAdjust="spacing" textLength="215" x="167" y="496.882">communication-namespace</text></g><!--cluster Observability Stack--><g id="cluster_Observability Stack"><polygon fill="none" points="1317,789.4869,1327,779.4869,1665,779.4869,1665,985.0769,1655,995.0769,1317,995.0769,1317,789.4869" style="stroke:#181818;stroke-width:1.0;"/><line style="stroke:#181818;stroke-width:1.0;" x1="1655" x2="1665" y1="789.4869" y2="779.4869"/><line style="stroke:#181818;stroke-width:1.0;" x1="1317" x2="1655" y1="789.4869" y2="789.4869"/><line style="stroke:#181818;stroke-width:1.0;" x1="1655" x2="1655" y1="789.4869" y2="995.0769"/><text fill="#000000" font-family="sans-serif" font-size="14" font-weight="bold" lengthAdjust="spacing" textLength="151" x="1411.5" y="805.482">Observability Stack</text></g><!--entity etcd--><g id="elem_etcd"><rect fill="#F1F1F1" height="36.2969" rx="2.5" ry="2.5" style="stroke:#181818;stroke-width:0.5;" width="104" x="853" y="819.4869"/><text fill="#000000" font-family="sans-serif" font-size="14" lengthAdjust="spacing" textLength="31" x="863" y="842.482">Etcd</text><text fill="#000000" font-family="sans-serif" font-size="14" lengthAdjust="spacing" textLength="4" x="894" y="842.482"> </text><text fill="#000000" font-family="sans-serif" font-size="14" lengthAdjust="spacing" textLength="49" x="898" y="842.482">Cluster</text></g><!--entity kubelet--><g id="elem_kubelet"><rect fill="#F1F1F1" height="36.2969" rx="2.5" ry="2.5" style="stroke:#181818;stroke-width:0.5;" width="73" x="807.5" y="638.1869"/><text fill="#000000" font-family="sans-serif" font-size="14" lengthAdjust="spacing" textLength="53" x="817.5" y="661.182">Kubelet</text></g><!--entity harbor--><g id="elem_harbor"><rect fill="#F1F1F1" height="36.2969" rx="2.5" ry="2.5" style="stroke:#181818;stroke-width:0.5;" width="197" x="991.5" y="819.4869"/><text fill="#000000" font-family="sans-serif" font-size="14" lengthAdjust="spacing" textLength="46" x="1001.5" y="842.482">Harbor</text><text fill="#000000" font-family="sans-serif" font-size="14" lengthAdjust="spacing" textLength="4" x="1047.5" y="842.482"> </text><text fill="#000000" font-family="sans-serif" font-size="14" lengthAdjust="spacing" textLength="67" x="1051.5" y="842.482">Container</text><text fill="#000000" font-family="sans-serif" font-size="14" lengthAdjust="spacing" textLength="4" x="1118.5" y="842.482"> </text><text fill="#000000" font-family="sans-serif" font-size="14" lengthAdjust="spacing" textLength="56" x="1122.5" y="842.482">Registry</text></g><!--entity linkerd--><g id="elem_linkerd"><rect fill="#F1F1F1" height="36.2969" rx="2.5" ry="2.5" style="stroke:#181818;stroke-width:0.5;" width="166" x="916" y="638.1869"/><text fill="#000000" font-family="sans-serif" font-size="14" lengthAdjust="spacing" textLength="50" x="926" y="661.182">Linkerd</text><text fill="#000000" font-family="sans-serif" font-size="14" lengthAdjust="spacing" textLength="4" x="976" y="661.182"> </text><text fill="#000000" font-family="sans-serif" font-size="14" lengthAdjust="spacing" textLength="50" x="980" y="661.182">Service</text><text fill="#000000" font-family="sans-serif" font-size="14" lengthAdjust="spacing" textLength="4" x="1030" y="661.182"> </text><text fill="#000000" font-family="sans-serif" font-size="14" lengthAdjust="spacing" textLength="38" x="1034" y="661.182">Mesh</text></g><!--entity traefik--><g id="elem_traefik"><rect fill="#F1F1F1" height="36.2969" rx="2.5" ry="2.5" style="stroke:#181818;stroke-width:0.5;" width="192" x="1061" y="524.8869"/><text fill="#000000" font-family="sans-serif" font-size="14" lengthAdjust="spacing" textLength="46" x="1071" y="547.882">Traefik</text><text fill="#000000" font-family="sans-serif" font-size="14" lengthAdjust="spacing" textLength="4" x="1117" y="547.882"> </text><text fill="#000000" font-family="sans-serif" font-size="14" lengthAdjust="spacing" textLength="51" x="1121" y="547.882">Ingress</text><text fill="#000000" font-family="sans-serif" font-size="14" lengthAdjust="spacing" textLength="4" x="1172" y="547.882"> </text><text fill="#000000" font-family="sans-serif" font-size="14" lengthAdjust="spacing" textLength="67" x="1176" y="547.882">Controller</text></g><!--entity User Service--><g id="elem_User Service"><rect fill="#F1F1F1" height="36.2969" rx="2.5" ry="2.5" style="stroke:#181818;stroke-width:0.5;" width="106" x="120" y="233.2969"/><text fill="#000000" font-family="sans-serif" font-size="14" lengthAdjust="spacing" textLength="32" x="130" y="256.292">User</text><text fill="#000000" font-family="sans-serif" font-size="14" lengthAdjust="spacing" textLength="4" x="162" y="256.292"> </text><text fill="#000000" font-family="sans-serif" font-size="14" lengthAdjust="spacing" textLength="50" x="166" y="256.292">Service</text></g><!--entity Keycloak--><g id="elem_Keycloak"><rect fill="#F1F1F1" height="36.2969" rx="2.5" ry="2.5" style="stroke:#181818;stroke-width:0.5;" width="81" x="260.5" y="233.2969"/><text fill="#000000" font-family="sans-serif" font-size="14" lengthAdjust="spacing" textLength="61" x="270.5" y="256.292">Keycloak</text></g><!--entity PostgreSQL--><g id="elem_PostgreSQL"><rect fill="#F1F1F1" height="36.2969" rx="2.5" ry="2.5" style="stroke:#181818;stroke-width:0.5;" width="101" x="177.5" y="356.5969"/><text fill="#000000" font-family="sans-serif" font-size="14" lengthAdjust="spacing" textLength="81" x="187.5" y="379.592">PostgreSQL</text></g><!--entity Community Service--><g id="elem_Community Service"><rect fill="#F1F1F1" height="36.2969" rx="2.5" ry="2.5" style="stroke:#181818;stroke-width:0.5;" width="152" x="449" y="233.2969"/><text fill="#000000" font-family="sans-serif" font-size="14" lengthAdjust="spacing" textLength="78" x="459" y="256.292">Community</text><text fill="#000000" font-family="sans-serif" font-size="14" lengthAdjust="spacing" textLength="4" x="537" y="256.292"> </text><text fill="#000000" font-family="sans-serif" font-size="14" lengthAdjust="spacing" textLength="50" x="541" y="256.292">Service</text></g><!--entity AuthZed--><g id="elem_AuthZed"><rect fill="#F1F1F1" height="36.2969" rx="2.5" ry="2.5" style="stroke:#181818;stroke-width:0.5;" width="80" x="636" y="233.2969"/><text fill="#000000" font-family="sans-serif" font-size="14" lengthAdjust="spacing" textLength="60" x="646" y="256.292">AuthZed</text></g><!--entity SpiceDB--><g id="elem_SpiceDB"><rect fill="#F1F1F1" height="36.2969" rx="2.5" ry="2.5" style="stroke:#181818;stroke-width:0.5;" width="79" x="485.5" y="356.5969"/><text fill="#000000" font-family="sans-serif" font-size="14" lengthAdjust="spacing" textLength="59" x="495.5" y="379.592">SpiceDB</text></g><!--entity Messaging Service--><g id="elem_Messaging Service"><rect fill="#F1F1F1" height="36.2969" rx="2.5" ry="2.5" style="stroke:#181818;stroke-width:0.5;" width="149" x="187.5" y="524.8869"/><text fill="#000000" font-family="sans-serif" font-size="14" lengthAdjust="spacing" textLength="75" x="197.5" y="547.882">Messaging</text><text fill="#000000" font-family="sans-serif" font-size="14" lengthAdjust="spacing" textLength="4" x="272.5" y="547.882"> </text><text fill="#000000" font-family="sans-serif" font-size="14" lengthAdjust="spacing" textLength="50" x="276.5" y="547.882">Service</text></g><!--entity MongoDB--><g id="elem_MongoDB"><rect fill="#F1F1F1" height="36.2969" rx="2.5" ry="2.5" style="stroke:#181818;stroke-width:0.5;" width="89" x="371.5" y="524.8869"/><text fill="#000000" font-family="sans-serif" font-size="14" lengthAdjust="spacing" textLength="69" x="381.5" y="547.882">MongoDB</text></g><!--entity File Sharing Service--><g id="elem_File Sharing Service"><rect fill="#F1F1F1" height="36.2969" rx="2.5" ry="2.5" style="stroke:#181818;stroke-width:0.5;" width="153" x="187.5" y="638.1869"/><text fill="#000000" font-family="sans-serif" font-size="14" lengthAdjust="spacing" textLength="23" x="197.5" y="661.182">File</text><text fill="#000000" font-family="sans-serif" font-size="14" lengthAdjust="spacing" textLength="4" x="220.5" y="661.182"> </text><text fill="#000000" font-family="sans-serif" font-size="14" lengthAdjust="spacing" textLength="52" x="224.5" y="661.182">Sharing</text><text fill="#000000" font-family="sans-serif" font-size="14" lengthAdjust="spacing" textLength="4" x="276.5" y="661.182"> </text><text fill="#000000" font-family="sans-serif" font-size="14" lengthAdjust="spacing" textLength="50" x="280.5" y="661.182">Service</text></g><!--entity Calls Service--><g id="elem_Calls Service"><rect fill="#F1F1F1" height="36.2969" rx="2.5" ry="2.5" style="stroke:#181818;stroke-width:0.5;" width="106" x="375" y="638.1869"/><text fill="#000000" font-family="sans-serif" font-size="14" lengthAdjust="spacing" textLength="32" x="385" y="661.182">Calls</text><text fill="#000000" font-family="sans-serif" font-size="14" lengthAdjust="spacing" textLength="4" x="417" y="661.182"> </text><text fill="#000000" font-family="sans-serif" font-size="14" lengthAdjust="spacing" textLength="50" x="421" y="661.182">Service</text></g><!--entity Grafana--><g id="elem_Grafana"><rect fill="#F1F1F1" height="36.2969" rx="2.5" ry="2.5" style="stroke:#181818;stroke-width:0.5;" width="73" x="1541.5" y="819.4869"/><text fill="#000000" font-family="sans-serif" font-size="14" lengthAdjust="spacing" textLength="53" x="1551.5" y="842.482">Grafana</text></g><!--entity Loki (Logs)--><g id="elem_Loki (Logs)"><rect fill="#F1F1F1" height="36.2969" rx="2.5" ry="2.5" style="stroke:#181818;stroke-width:0.5;" width="94" x="1333" y="942.7769"/><text fill="#000000" font-family="sans-serif" font-size="14" lengthAdjust="spacing" textLength="27" x="1343" y="965.772">Loki</text><text fill="#000000" font-family="sans-serif" font-size="14" lengthAdjust="spacing" textLength="4" x="1370" y="965.772"> </text><text fill="#000000" font-family="sans-serif" font-size="14" lengthAdjust="spacing" textLength="43" x="1374" y="965.772">(Logs)</text></g><!--entity Grafana Tempo (Traces)--><g id="elem_Grafana Tempo (Traces)"><rect fill="#F1F1F1" height="36.2969" rx="2.5" ry="2.5" style="stroke:#181818;stroke-width:0.5;" width="187" x="1462.5" y="942.7769"/><text fill="#000000" font-family="sans-serif" font-size="14" lengthAdjust="spacing" textLength="53" x="1472.5" y="965.772">Grafana</text><text fill="#000000" font-family="sans-serif" font-size="14" lengthAdjust="spacing" textLength="4" x="1525.5" y="965.772"> </text><text fill="#000000" font-family="sans-serif" font-size="14" lengthAdjust="spacing" textLength="49" x="1529.5" y="965.772">Tempo</text><text fill="#000000" font-family="sans-serif" font-size="14" lengthAdjust="spacing" textLength="4" x="1578.5" y="965.772"> </text><text fill="#000000" font-family="sans-serif" font-size="14" lengthAdjust="spacing" textLength="57" x="1582.5" y="965.772">(Traces)</text></g><!--entity Grafana Alloy Collector--><g id="elem_Grafana Alloy Collector"><rect fill="#F1F1F1" height="36.2969" rx="2.5" ry="2.5" style="stroke:#181818;stroke-width:0.5;" width="173" x="1333.5" y="819.4869"/><text fill="#000000" font-family="sans-serif" font-size="14" lengthAdjust="spacing" textLength="53" x="1343.5" y="842.482">Grafana</text><text fill="#000000" font-family="sans-serif" font-size="14" lengthAdjust="spacing" textLength="4" x="1396.5" y="842.482"> </text><text fill="#000000" font-family="sans-serif" font-size="14" lengthAdjust="spacing" textLength="31" x="1400.5" y="842.482">Alloy</text><text fill="#000000" font-family="sans-serif" font-size="14" lengthAdjust="spacing" textLength="4" x="1431.5" y="842.482"> </text><text fill="#000000" font-family="sans-serif" font-size="14" lengthAdjust="spacing" textLength="61" x="1435.5" y="842.482">Collector</text></g><!--entity clients--><g id="elem_clients"><path d="M1345.8912,236.4106 C1350.1722,230.3469 1354.7216,230.8591 1358.524,236.9097 C1362.5011,230.9603 1367.8331,229.7238 1372.5845,236.0207 C1375.3816,230.3836 1381.6041,229.706 1385.436,234.7789 C1389.9321,228.9837 1394.524,228.9872 1398.1027,235.7075 C1400.6878,228.9815 1405.178,229.8042 1409.4237,233.9834 C1414.2756,226.5721 1419.8432,226.8553 1423.9714,234.6745 C1426.9741,229.1126 1432.7309,228.6999 1435.5555,234.8506 C1439.7596,229.509 1445.3982,229.7952 1448.824,235.7637 C1453.5432,230.4208 1457.9362,230.9661 1460.6317,237.7364 C1464.2692,232.5038 1469.3745,231.6147 1473.3209,237.3801 C1482.0584,239.6492 1485.0582,246.5606 1478.0402,253.4552 C1483.0252,260.1558 1481.148,264.5644 1473.9452,267.7812 C1469.8169,273.8267 1465.6716,274.4103 1461.0603,268.2929 C1458.2399,273.5475 1452.0918,274.0537 1448.5482,269.187 C1445.356,275.5166 1440.3093,276.6831 1435.2407,271.3233 C1432.8001,276.8911 1428.7606,279.0454 1423.9684,273.7675 C1420.0842,279.5421 1413.9901,279.3498 1410.2378,273.6102 C1406.5652,281.2071 1400.2197,279.4246 1396.4022,273.7614 C1391.999,278.4173 1388.4943,278.6881 1385.4835,272.3754 C1379.8453,278.3885 1375.2295,279.3393 1371.0674,270.9028 C1365.9093,277.4164 1360.8459,276.5523 1358.0013,268.7859 C1353.3309,274.3747 1350.0148,272.3032 1346.8327,267.2273 C1337.7046,266.4389 1335.2262,259.6841 1340.8554,252.7871 C1334.8412,246.2128 1337.1584,238.4501 1345.8912,236.4106 " fill="#F1F1F1" style="stroke:#181818;stroke-width:0.5;"/><text fill="#000000" font-family="sans-serif" font-size="14" lengthAdjust="spacing" textLength="54" x="1352" y="256.292">Internet</text><text fill="#000000" font-family="sans-serif" font-size="14" lengthAdjust="spacing" textLength="4" x="1406" y="256.292"> </text><text fill="#000000" font-family="sans-serif" font-size="14" lengthAdjust="spacing" textLength="5" x="1410" y="256.292">/</text><text fill="#000000" font-family="sans-serif" font-size="14" lengthAdjust="spacing" textLength="4" x="1415" y="256.292"> </text><text fill="#000000" font-family="sans-serif" font-size="14" lengthAdjust="spacing" textLength="47" x="1419" y="256.292">Clients</text></g><!--entity dmz--><g id="elem_dmz"><polygon fill="#F1F1F1" points="1309,361.5969,1319,351.5969,1509,351.5969,1509,387.8937,1499,397.8937,1309,397.8937,1309,361.5969" style="stroke:#181818;stroke-width:0.5;"/><line style="stroke:#181818;stroke-width:0.5;" x1="1499" x2="1509" y1="361.5969" y2="351.5969"/><line style="stroke:#181818;stroke-width:0.5;" x1="1309" x2="1499" y1="361.5969" y2="361.5969"/><line style="stroke:#181818;stroke-width:0.5;" x1="1499" x2="1499" y1="361.5969" y2="397.8937"/><text fill="#000000" font-family="sans-serif" font-size="14" lengthAdjust="spacing" textLength="33" x="1324" y="384.592">DMZ</text><text fill="#000000" font-family="sans-serif" font-size="14" lengthAdjust="spacing" textLength="4" x="1357" y="384.592"> </text><text fill="#000000" font-family="sans-serif" font-size="14" lengthAdjust="spacing" textLength="64" x="1361" y="384.592">(Gateway</text><text fill="#000000" font-family="sans-serif" font-size="14" lengthAdjust="spacing" textLength="4" x="1425" y="384.592"> </text><text fill="#000000" font-family="sans-serif" font-size="14" lengthAdjust="spacing" textLength="55" x="1429" y="384.592">Service)</text></g><!--link clients to dmz--><g id="link_clients_dmz"><path d="M1409,274.9769 C1409,296.7569 1409,323.5869 1409,345.3269 " fill="none" id="clients-to-dmz" style="stroke:#181818;stroke-width:1.0;"/><polygon fill="#181818" points="1409,351.3269,1413,342.3269,1409,346.3269,1405,342.3269,1409,351.3269" style="stroke:#181818;stroke-width:1.0;"/><text fill="#000000" font-family="sans-serif" font-size="13" lengthAdjust="spacing" textLength="78" x="1410" y="317.6638">HTTPS (TLS)</text></g><!--link dmz to traefik--><g id="link_dmz_traefik"><path d="M1374.75,398.3369 C1323.88,431.9069 1234.448,490.9324 1188.498,521.2524 " fill="none" id="dmz-to-traefik" style="stroke:#181818;stroke-width:1.0;"/><polygon fill="#181818" points="1183.49,524.5569,1193.205,522.9388,1187.6633,521.8031,1188.799,516.2614,1183.49,524.5569" style="stroke:#181818;stroke-width:1.0;"/></g><!--link traefik to linkerd--><g id="link_traefik_linkerd"><path d="M1131.96,561.6769 C1102.38,582.5169 1058.3545,613.5206 1028.8245,634.3306 " fill="none" id="traefik-to-linkerd" style="stroke:#181818;stroke-width:1.0;"/><polygon fill="#181818" points="1023.92,637.7869,1033.5809,635.8722,1028.0071,634.9067,1028.9726,629.3328,1023.92,637.7869" style="stroke:#181818;stroke-width:1.0;"/><text fill="#000000" font-family="sans-serif" font-size="13" lengthAdjust="spacing" textLength="144" x="1088.46" y="604.2538">Secure routing (mTLS)</text></g><!--link user-namespace to linkerd--><g id="link_user-namespace_linkerd"><path d="M385.0534,256.4197 C385.2907,256.5328 385.5325,256.6476 385.7785,256.7641 C386.7627,257.2303 387.8152,257.7235 388.9285,258.2381 C391.1552,259.2673 393.625,260.3825 396.2775,261.5394 C406.8875,266.1669 420.42,271.4619 433,274.5969 C548.87,303.4669 591.87,253.9169 700,304.5969 C727.32,317.3969 730,328.1469 749,351.5969 C784.01,394.7969 781.22,413.7169 815,457.8869 C869.65,529.3469 941.4965,600.5371 976.1665,633.7371 " fill="none" id="user-namespace-to-linkerd" style="stroke:#181818;stroke-width:1.0;"/><polygon fill="#181818" points="980.5,637.8869,976.7662,628.7732,976.8887,634.4287,971.2332,634.5512,980.5,637.8869" style="stroke:#181818;stroke-width:1.0;"/><text fill="#000000" font-family="sans-serif" font-size="13" lengthAdjust="spacing" textLength="48" x="816" y="453.9538">metrics</text></g><!--link community-namespace to linkerd--><g id="link_community-namespace_linkerd"><path d="M759.1204,255.6187 C759.4589,255.7562 759.8065,255.8979 760.1631,256.0439 C760.8762,256.3358 761.6248,256.6446 762.4069,256.97 C768.6631,259.5731 777.055,263.2369 786.4575,267.7969 C805.2625,276.9169 828.11,289.6219 846,304.5969 C905.69,354.5569 922.95,370.4069 956,440.8869 C987.92,508.9569 995.8569,594.0261 997.9569,631.7961 " fill="none" id="community-namespace-to-linkerd" style="stroke:#181818;stroke-width:1.0;"/><polygon fill="#181818" points="998.29,637.7869,1001.7842,628.5787,998.0124,632.7946,993.7965,629.0228,998.29,637.7869" style="stroke:#181818;stroke-width:1.0;"/><text fill="#000000" font-family="sans-serif" font-size="13" lengthAdjust="spacing" textLength="48" x="964.18" y="453.9538">metrics</text></g><!--link communication-namespace to linkerd--><g id="link_communication-namespace_linkerd"><path d="M513.2642,562.9701 C515.6169,563.7125 518.8702,564.5977 522.9317,565.6103 C531.0549,567.6355 542.4113,570.1701 556.2633,573.0902 C583.9672,578.9303 621.6531,586.3125 663.4188,594.2456 C746.95,610.1119 840.8939,627.1244 909.8439,639.4694 " fill="none" id="communication-namespace-to-linkerd" style="stroke:#181818;stroke-width:1.0;"/><polygon fill="#181818" points="915.75,640.5269,907.5958,635.0033,910.8283,639.6457,906.1859,642.8781,915.75,640.5269" style="stroke:#181818;stroke-width:1.0;"/><text fill="#000000" font-family="sans-serif" font-size="13" lengthAdjust="spacing" textLength="48" x="729.68" y="604.2538">metrics</text></g><!--link linkerd to linkerd--><g id="link_linkerd_linkerd"><path d="M1082.25,645.8969 C1102.21,646.7169 1117,650.1969 1117,656.3369 C1117,662.4769 1108.2051,665.7136 1088.2451,666.5236 " fill="none" id="linkerd-to-linkerd" style="stroke:#181818;stroke-width:1.0;"/><polygon fill="#181818" points="1082.25,666.7669,1091.4048,670.3987,1087.2459,666.5641,1091.0804,662.4052,1082.25,666.7669" style="stroke:#181818;stroke-width:1.0;"/><text fill="#000000" font-family="sans-serif" font-size="13" lengthAdjust="spacing" textLength="141" x="1123" y="660.9038">mTLS Communication</text></g><!--link user-namespace to kubelet--><g id="link_user-namespace_kubelet"><path d="M385.1595,256.0459 C385.3995,256.1498 385.6439,256.2555 385.8925,256.3629 C386.8871,256.7925 387.9501,257.249 389.0735,257.7283 C391.3204,258.6869 393.8091,259.7362 396.4763,260.8419 C407.145,265.2644 420.67,270.5869 433,274.5969 C563.5,317.0169 647.93,243.1369 732,351.5969 C754.14,380.1469 753.47,403.8269 732,432.8869 C724.82,442.6169 713.18,431.1669 706,440.8869 C701.51,446.9669 703.73,450.6869 706,457.8869 C729.86,533.6869 790.1087,601.4531 821.7587,633.5731 " fill="none" id="user-namespace-to-kubelet" style="stroke:#181818;stroke-width:1.0;"/><polygon fill="#181818" points="825.97,637.8469,822.5023,628.6287,822.4606,634.2854,816.8039,634.2437,825.97,637.8469" style="stroke:#181818;stroke-width:1.0;"/><text fill="#000000" font-family="sans-serif" font-size="13" lengthAdjust="spacing" textLength="71" x="707" y="453.9538">stdout logs</text></g><!--link community-namespace to kubelet--><g id="link_community-namespace_kubelet"><path d="M759.2168,255.5446 C759.2973,255.5771 759.3784,255.6099 759.4599,255.6429 C760.1123,255.9069 760.796,256.1871 761.5088,256.4834 C767.2106,258.8537 774.77,262.2531 783.0025,266.6444 C799.4675,275.4269 818.625,288.1769 831,304.5969 C869.16,355.2069 863.56,378.2069 873,440.8869 C883.99,513.8869 862.7844,595.4322 851.5144,632.0622 " fill="none" id="community-namespace-to-kubelet" style="stroke:#181818;stroke-width:1.0;"/><polygon fill="#181818" points="849.75,637.7969,856.2197,630.3711,851.2203,633.018,848.5735,628.0185,849.75,637.7969" style="stroke:#181818;stroke-width:1.0;"/><text fill="#000000" font-family="sans-serif" font-size="13" lengthAdjust="spacing" textLength="71" x="875.83" y="453.9538">stdout logs</text></g><!--link communication-namespace to kubelet--><g id="link_communication-namespace_kubelet"><path d="M513.0884,574.898 C513.1307,575.0057 513.1731,575.1135 513.2158,575.2213 C513.3012,575.437 513.3873,575.6528 513.4743,575.8689 C514.1702,577.5972 514.9189,579.3373 515.7236,581.0724 C517.3331,584.5428 519.167,587.9935 521.2523,591.2917 C525.4231,597.8881 530.6,603.8744 537,608.1869 C580.54,637.5269 729.5196,649.1783 801.1796,653.2283 " fill="none" id="communication-namespace-to-kubelet" style="stroke:#181818;stroke-width:1.0;"/><polygon fill="#181818" points="807.17,653.5669,798.41,649.0654,802.178,653.2847,797.9586,657.0527,807.17,653.5669" style="stroke:#181818;stroke-width:1.0;"/><text fill="#000000" font-family="sans-serif" font-size="13" lengthAdjust="spacing" textLength="71" x="538" y="604.2538">stdout logs</text></g><!--link linkerd to Grafana Tempo (Traces)--><g id="link_linkerd_Grafana Tempo (Traces)"><path d="M1082.28,659.6369 C1237.78,665.8769 1562.85,688.7469 1632,771.4869 C1669.71,816.5969 1658.48,851.2869 1632,903.7769 C1623.65,920.3269 1612.9729,930.067 1597.9429,939.297 " fill="none" id="linkerd-to-Grafana Tempo (Traces)" style="stroke:#181818;stroke-width:1.0;"/><polygon fill="#181818" points="1592.83,942.4369,1602.5925,941.1357,1597.0907,939.8203,1598.4061,934.3185,1592.83,942.4369" style="stroke:#181818;stroke-width:1.0;"/></g><!--link kubelet to Grafana Alloy Collector--><g id="link_kubelet_Grafana Alloy Collector"><path d="M850.08,674.9769 C857.83,694.4369 873.27,724.7969 898,738.4869 C912.35,746.4169 1176.85,743.6669 1193,746.4869 C1228.03,752.5869 1235.75,758.8669 1269,771.4869 C1307.97,786.2669 1346.1429,802.9049 1376.4429,816.6049 " fill="none" id="kubelet-to-Grafana Alloy Collector" style="stroke:#181818;stroke-width:1.0;"/><polygon fill="#181818" points="1381.91,819.0769,1375.3573,811.7242,1377.3541,817.0169,1372.0613,819.0137,1381.91,819.0769" style="stroke:#181818;stroke-width:1.0;"/></g><!--link Grafana Alloy Collector to Loki (Logs)--><g id="link_Grafana Alloy Collector_Loki (Logs)"><path d="M1414.18,856.2669 C1406.56,879.3969 1395.1395,914.0188 1387.5695,936.9688 " fill="none" id="Grafana Alloy Collector-to-Loki (Logs)" style="stroke:#181818;stroke-width:1.0;"/><polygon fill="#181818" points="1385.69,942.6669,1392.3079,935.3728,1387.2562,937.9185,1384.7105,932.8668,1385.69,942.6669" style="stroke:#181818;stroke-width:1.0;"/></g><!--link Grafana to Loki (Logs)--><g id="link_Grafana_Loki (Logs)"><path d="M1567.08,856.2569 C1557.34,870.7369 1541.87,890.8869 1524,903.7769 C1494.95,924.7469 1462.7837,937.3819 1433.1537,946.3319 " fill="none" id="Grafana-to-Loki (Logs)" style="stroke:#181818;stroke-width:1.0;"/><polygon fill="#181818" points="1427.41,948.0669,1437.1822,949.2936,1432.1964,946.6211,1434.8689,941.6353,1427.41,948.0669" style="stroke:#181818;stroke-width:1.0;"/></g><!--link Grafana to Grafana Tempo (Traces)--><g id="link_Grafana_Grafana Tempo (Traces)"><path d="M1574.8,856.2669 C1570.61,879.3969 1564.3601,913.8131 1560.2001,936.7631 " fill="none" id="Grafana-to-Grafana Tempo (Traces)" style="stroke:#181818;stroke-width:1.0;"/><polygon fill="#181818" points="1559.13,942.6669,1564.6711,934.5246,1560.0218,937.747,1556.7994,933.0978,1559.13,942.6669" style="stroke:#181818;stroke-width:1.0;"/></g><!--link linkerd to etcd--><g id="link_linkerd_etcd"><path d="M989.82,674.8569 C971.85,709.1269 935.0055,779.3927 917.0055,813.7327 " fill="none" id="linkerd-to-etcd" style="stroke:#181818;stroke-width:1.0;"/><polygon fill="#181818" points="914.22,819.0469,921.9411,812.9326,916.5413,814.6184,914.8555,809.2185,914.22,819.0469" style="stroke:#181818;stroke-width:1.0;"/><text fill="#000000" font-family="sans-serif" font-size="13" lengthAdjust="spacing" textLength="82" x="953" y="759.5538">Cluster state</text></g><!--link linkerd to harbor--><g id="link_linkerd_harbor"><path d="M1007.89,674.8569 C1025.29,709.1269 1060.9356,779.356 1078.3556,813.696 " fill="none" id="linkerd-to-harbor" style="stroke:#181818;stroke-width:1.0;"/><polygon fill="#181818" points="1081.07,819.0469,1080.5657,809.2109,1078.808,814.5878,1073.4311,812.8301,1081.07,819.0469" style="stroke:#181818;stroke-width:1.0;"/><text fill="#000000" font-family="sans-serif" font-size="13" lengthAdjust="spacing" textLength="130" x="1053.65" y="759.5538">Image pulls (secure)</text></g><!--SRC=[XLLDJzj04BtxLunomJwWeXvxg0G91KGej4vLYIY7ZJrsLbxlMhjZGbhntplh3t22KpX0cFVcuys-tRX2wafOKK9Yoifer1JJJY5OJ4ZeN67WNYbRAwhVCgKDV3ux2qWIynR2vaWGcuosmYBSwCmAHxPEgEP_mzjwZLOZeGEZcQsCWxdKzNCK1Dga29D13ExZ2VmD08R8eC9KrOxGUWwJ09QNbAHzT0N20NAWXNoQGcgYHVkv1Qw5NHiBKwD9I8qMVc8kUU9TGzqqQ5kUbPGyndV-xIgHy03XHUqunpcOcPApNTJEwt-OKOYS-RL3Uwhxf3S2z_x54CHedsI2gxVmBUuIPKGn23qOHxd5-CUy3xu4XutuoCfQIzeTwJRjyP6Mx-jpyBocpIEcWqXSSThiuiCP4a7Iw2DptF72H2vrFZB7dT6vUMl0aM-IRHNpEOmdJ8LIxZ3-4WocMxAN2hHfJmBklsaELxL0orfOWPaisB6y1pvHRmXhbEgSH2qS-B9ScC-dJc5oewan8tnYsqc-BMxYoKdxkNFqxEuHmYj1k1MlguyQNbh-2O8Jk5-p3vx4MYf_E8vucLtgFX9xf5tbyigAJ6ZX5I_dff0GpatkejK0WmNo7OQGbR5Pzw5pfSoEDRA-X8nTUKqdSFdivGZbrMQPJC2QcdZlGIS8Ja-_-g7X2rml5Wynrvx7KU0Z7kbtrFrjOjsEEIF6n3y1NKa8ooQNkxPB77GDpL1s52pthz3ge729P6NYWkN81VY8UsZKO_m-Se2o19WEAtaz2tvSVDuEKa42CcMsunAwTuWBEKfvBQ3u2FyZu__ySIdZEKCvH-tIf-wHtXddADBcxNdpbJm67c37fk85px12dQ9E9EvBySyzA-s-0VnD8jmZjCyvKsvA_rnLjNyyGjSuC_e7]--></g></svg>