<svg xmlns="http://www.w3.org/2000/svg" xmlns:xlink="http://www.w3.org/1999/xlink" contentStyleType="text/css" height="712px" preserveAspectRatio="none" style="width:1381px;height:712px;background:#FFFFFF;" version="1.1" viewBox="0 0 1381 712" width="1381px" zoomAndPan="magnify"><defs/><g><text fill="#000000" font-family="sans-serif" font-size="14" font-weight="bold" lengthAdjust="spacing" textLength="319" x="524.395" y="22.9951">Observability Stack Deployment Diagram</text><!--cluster Kubernetes Cluster--><g id="cluster_Kubernetes Cluster"><polygon fill="none" points="16,53.2969,26,43.2969,1246,43.2969,1246,685.0769,1236,695.0769,16,695.0769,16,53.2969" style="stroke:#181818;stroke-width:1.0;"/><line style="stroke:#181818;stroke-width:1.0;" x1="1236" x2="1246" y1="53.2969" y2="43.2969"/><line style="stroke:#181818;stroke-width:1.0;" x1="16" x2="1236" y1="53.2969" y2="53.2969"/><line style="stroke:#181818;stroke-width:1.0;" x1="1236" x2="1236" y1="53.2969" y2="695.0769"/><text fill="#000000" font-family="sans-serif" font-size="14" font-weight="bold" lengthAdjust="spacing" textLength="155" x="549.5" y="69.292">Kubernetes Cluster</text></g><!--cluster Node (server blade)--><g id="cluster_Node (server blade)"><polygon fill="none" points="40,101.2969,50,91.2969,274,91.2969,274,520.4869,264,530.4869,40,530.4869,40,101.2969" style="stroke:#181818;stroke-width:1.0;"/><line style="stroke:#181818;stroke-width:1.0;" x1="264" x2="274" y1="101.2969" y2="91.2969"/><line style="stroke:#181818;stroke-width:1.0;" x1="40" x2="264" y1="101.2969" y2="101.2969"/><line style="stroke:#181818;stroke-width:1.0;" x1="264" x2="264" y1="101.2969" y2="530.4869"/><text fill="#000000" font-family="sans-serif" font-size="14" font-weight="bold" lengthAdjust="spacing" textLength="158" x="74" y="117.292">Node (server blade)</text></g><!--cluster Linkerd Service Mesh--><g id="cluster_Linkerd Service Mesh"><path d="M314.414,426.8918 C325.1723,414.0394 334.3704,413.8598 343.5276,428.5823 C351.9479,411.9411 367.7901,408.9385 377.6342,427.1906 C384.1349,412.9096 398.2603,410.0267 406.8054,425.1633 C417.2434,410.9435 428.0726,408.8271 437.9735,425.7017 C446.9912,410.314 459.5156,408.6042 469.4691,424.7674 C478.559,410.1791 487.2573,413.5051 496.2516,424.8661 C504.8845,405.03 517.1058,404.1114 530.2003,420.7088 C539.5505,406.0396 549.9373,408.6675 559.1777,420.8275 C569.0176,408.217 585.2208,410.1687 591.5668,424.9577 C598.1764,410.0384 611.4894,411.7415 619.9533,422.9425 C629.8531,411.0755 643.7059,411.6321 650.8678,426.1505 C656.9894,411.1908 671.1174,409.6601 679.7994,423.5861 C691.224,411.1742 704.5856,411.3781 710.9638,428.849 C721.3947,410.6634 738.6273,415.3222 747,431.0369 C749.2671,430.0498 750.7428,431.5948 750.2474,433.8252 C769.7778,442.1225 775.4984,461.1552 755.1896,474.3153 C767.1469,491.8484 765.6144,511.0636 740,514.3369 C742.1209,512.402 744.011,512.9349 744.7692,515.7153 C736.3629,531.0789 723.4385,529.5903 713.8255,517.0536 C705.4461,533.3311 693.0156,535.3815 682.2757,519.3593 C673.4418,535.3915 662.1054,533.1091 652.4308,520.2271 C643.1334,537.7076 632.0706,536.9011 620.1137,522.9627 C610.864,537.6099 598.0209,539.9084 588.3789,523.3618 C582.2155,534.9208 570.6297,536.2371 562.3364,525.8944 C552.6113,541.6725 541.8336,544.087 529.5309,528.5988 C518.9332,543.0561 508.7534,540.5131 500.8946,525.9007 C489.5996,539.6468 476.7845,539.7881 466.493,524.7032 C459.944,537.2298 447.1202,538.6872 440.5163,524.7572 C427.6044,540.2252 416.9223,535.3952 408.3049,520.2401 C398.9412,538.1929 386.8646,537.4201 374.873,522.9497 C365.5978,533.9071 354.3998,532.3641 347.4693,520.1738 C328.5278,532.6634 314.2354,529.4328 306,507.3369 C308.2413,506.8441 309.3273,507.8926 308.8332,510.1524 C284.9336,504.7589 281.749,492.7027 295.0354,473.3627 C277.614,452.729 283.0697,427.4249 313,424.0369 C314.6985,424.2179 315.1822,425.4891 314.414,426.8918 " fill="none" style="stroke:#181818;stroke-width:1.0;"/><text fill="#000000" font-family="sans-serif" font-size="14" font-weight="bold" lengthAdjust="spacing" textLength="170" x="441.5" y="442.032">Linkerd Service Mesh</text></g><!--cluster Grafana Observability Suite--><g id="cluster_Grafana Observability Suite"><path d="M781.5,407.8869 L997.5,407.8869 A3.75,3.75 0 0 1 1000,410.3869 L1007,430.1838 L1083.5,430.1838 A2.5,2.5 0 0 1 1086,432.6838 L1086,668.5769 A2.5,2.5 0 0 1 1083.5,671.0769 L781.5,671.0769 A2.5,2.5 0 0 1 779,668.5769 L779,410.3869 A2.5,2.5 0 0 1 781.5,407.8869 " fill="none" style="stroke:#000000;stroke-width:1.5;"/><line style="stroke:#000000;stroke-width:1.5;" x1="779" x2="1007" y1="430.1838" y2="430.1838"/><text fill="#000000" font-family="sans-serif" font-size="14" font-weight="bold" lengthAdjust="spacing" textLength="215" x="783" y="422.882">Grafana Observability Suite</text></g><!--entity Jaeger--><g id="elem_Jaeger"><rect fill="#F1F1F1" height="52.5938" rx="2.5" ry="2.5" style="stroke:#181818;stroke-width:0.5;" width="128" x="1102" y="461.8869"/><text fill="#000000" font-family="sans-serif" font-size="14" lengthAdjust="spacing" textLength="108" x="1112" y="484.882">Jaeger Collector</text><text fill="#000000" font-family="sans-serif" font-size="14" lengthAdjust="spacing" textLength="82" x="1125" y="501.1789">(via Linkerd)</text></g><!--entity Kubelet--><g id="elem_Kubelet"><rect fill="#F1F1F1" height="36.2969" rx="2.5" ry="2.5" style="stroke:#181818;stroke-width:0.5;" width="73" x="138.5" y="288.5969"/><text fill="#000000" font-family="sans-serif" font-size="14" lengthAdjust="spacing" textLength="53" x="148.5" y="311.592">Kubelet</text></g><!--entity BusinessPods--><g id="elem_BusinessPods"><rect fill="#F1F1F1" height="36.2969" rx="2.5" ry="2.5" style="stroke:#181818;stroke-width:0.5;" width="177" x="81.5" y="155.2969"/><text fill="#000000" font-family="sans-serif" font-size="14" lengthAdjust="spacing" textLength="157" x="91.5" y="178.292">Business Service Pods</text></g><!--entity Alloy--><g id="elem_Alloy"><rect fill="#F1F1F1" height="52.5938" rx="2.5" ry="2.5" style="stroke:#181818;stroke-width:0.5;" width="108" x="138" y="461.8869"/><text fill="#000000" font-family="sans-serif" font-size="14" lengthAdjust="spacing" textLength="88" x="148" y="484.882">Grafana Alloy</text><text fill="#000000" font-family="sans-serif" font-size="14" lengthAdjust="spacing" textLength="82" x="151" y="501.1789">DaemonSet</text></g><!--entity LinkerdProxy--><g id="elem_LinkerdProxy"><rect fill="#F1F1F1" height="36.2969" rx="2.5" ry="2.5" style="stroke:#181818;stroke-width:0.5;" width="111" x="314.5" y="470.0369"/><text fill="#000000" font-family="sans-serif" font-size="14" lengthAdjust="spacing" textLength="91" x="324.5" y="493.032">Linkerd Proxy</text></g><!--entity LinkerdCP--><g id="elem_LinkerdCP"><rect fill="#F1F1F1" height="36.2969" rx="2.5" ry="2.5" style="stroke:#181818;stroke-width:0.5;" width="166" x="573" y="470.0369"/><text fill="#000000" font-family="sans-serif" font-size="14" lengthAdjust="spacing" textLength="146" x="583" y="493.032">Linkerd Control Plane</text></g><!--entity Loki--><g id="elem_Loki"><path d="M794.5,603.4869 C794.5,593.4869 851,593.4869 851,593.4869 C851,593.4869 907.5,593.4869 907.5,603.4869 L907.5,645.0806 C907.5,655.0806 851,655.0806 851,655.0806 C851,655.0806 794.5,655.0806 794.5,645.0806 L794.5,603.4869 " fill="#F1F1F1" style="stroke:#181818;stroke-width:0.5;"/><path d="M794.5,603.4869 C794.5,613.4869 851,613.4869 851,613.4869 C851,613.4869 907.5,613.4869 907.5,603.4869 " fill="none" style="stroke:#181818;stroke-width:0.5;"/><text fill="#000000" font-family="sans-serif" font-size="14" lengthAdjust="spacing" textLength="84" x="809" y="630.482">Grafana Loki</text><text fill="#000000" font-family="sans-serif" font-size="14" lengthAdjust="spacing" textLength="93" x="804.5" y="646.7789">(Log Storage)</text></g><!--entity Tempo--><g id="elem_Tempo"><path d="M942.5,603.4869 C942.5,593.4869 1006,593.4869 1006,593.4869 C1006,593.4869 1069.5,593.4869 1069.5,603.4869 L1069.5,645.0806 C1069.5,655.0806 1006,655.0806 1006,655.0806 C1006,655.0806 942.5,655.0806 942.5,645.0806 L942.5,603.4869 " fill="#F1F1F1" style="stroke:#181818;stroke-width:0.5;"/><path d="M942.5,603.4869 C942.5,613.4869 1006,613.4869 1006,613.4869 C1006,613.4869 1069.5,613.4869 1069.5,603.4869 " fill="none" style="stroke:#181818;stroke-width:0.5;"/><text fill="#000000" font-family="sans-serif" font-size="14" lengthAdjust="spacing" textLength="106" x="953" y="630.482">Grafana Tempo</text><text fill="#000000" font-family="sans-serif" font-size="14" lengthAdjust="spacing" textLength="107" x="952.5" y="646.7789">(Trace Storage)</text></g><!--entity Grafana--><g id="elem_Grafana"><rect fill="#F1F1F1" height="52.5938" rx="2.5" ry="2.5" style="stroke:#181818;stroke-width:0.5;" width="176" x="882" y="461.8869"/><text fill="#000000" font-family="sans-serif" font-size="14" lengthAdjust="spacing" textLength="141" x="899.5" y="484.882">Grafana Dashboards</text><text fill="#000000" font-family="sans-serif" font-size="14" lengthAdjust="spacing" textLength="156" x="892" y="501.1789">(Logs, Metrics, Traces)</text></g><!--entity User--><g id="elem_User"><ellipse cx="1311" cy="277.0969" fill="#F1F1F1" rx="8" ry="8" style="stroke:#181818;stroke-width:0.5;"/><path d="M1311,285.0969 L1311,312.0969 M1298,293.0969 L1324,293.0969 M1311,312.0969 L1298,327.0969 M1311,312.0969 L1324,327.0969 " fill="none" style="stroke:#181818;stroke-width:0.5;"/><text fill="#000000" font-family="sans-serif" font-size="14" lengthAdjust="spacing" textLength="98" x="1262" y="341.592">Operator/User</text></g><!--link BusinessPods to Kubelet--><g id="link_BusinessPods_Kubelet"><path d="M170.66,191.8769 C171.62,216.9869 173.1536,257.0811 174.1036,282.2411 " fill="none" id="BusinessPods-to-Kubelet" style="stroke:#0000FF;stroke-width:1.0;"/><polygon fill="#0000FF" points="174.33,288.2369,177.9876,279.0924,174.1413,283.2404,169.9933,279.3942,174.33,288.2369" style="stroke:#0000FF;stroke-width:1.0;"/><text fill="#000000" font-family="sans-serif" font-size="13" lengthAdjust="spacing" textLength="71" x="173.35" y="234.6638">stdout logs</text></g><!--link Kubelet to Alloy--><g id="link_Kubelet_Alloy"><path d="M176.66,325.2769 C179.68,357.1069 185.505,418.5735 189.005,455.5735 " fill="none" id="Kubelet-to-Alloy" style="stroke:#0000FF;stroke-width:1.0;"/><polygon fill="#0000FF" points="189.57,461.5469,192.7047,452.2102,189.0991,456.5691,184.7402,452.9636,189.57,461.5469" style="stroke:#0000FF;stroke-width:1.0;"/><text fill="#000000" font-family="sans-serif" font-size="13" lengthAdjust="spacing" textLength="77" x="183.48" y="387.9538">log scraping</text></g><!--link Alloy to Loki--><g id="link_Alloy_Loki"><path d="M239.68,514.8669 C257.54,523.5369 278.28,532.5169 298,538.4869 C474.18,591.7769 686.5552,612.2102 788.1152,619.4502 " fill="none" id="Alloy-to-Loki" style="stroke:#0000FF;stroke-width:1.0;"/><polygon fill="#0000FF" points="794.1,619.8769,785.4072,615.247,789.1127,619.5213,784.8384,623.2268,794.1,619.8769" style="stroke:#0000FF;stroke-width:1.0;"/><text fill="#000000" font-family="sans-serif" font-size="13" lengthAdjust="spacing" textLength="61" x="387.33" y="559.5538">send logs</text></g><!--link Grafana to Loki--><g id="link_Grafana_Loki"><path d="M933.65,514.7369 C921.85,523.9769 909.19,534.9869 899,546.4869 C886.49,560.6069 878.1387,573.1485 869.6287,588.0285 " fill="none" id="Grafana-to-Loki" style="stroke:#0000FF;stroke-width:1.0;"/><polygon fill="#0000FF" points="866.65,593.2369,874.5903,587.4101,869.1323,588.8966,867.6458,583.4385,866.65,593.2369" style="stroke:#0000FF;stroke-width:1.0;"/><text fill="#000000" font-family="sans-serif" font-size="13" lengthAdjust="spacing" textLength="66" x="900" y="559.5538">query logs</text></g><!--link LinkerdProxy to LinkerdCP--><g id="link_LinkerdProxy_LinkerdCP"><path d="M425.82,488.1869 C467.6,488.1869 519.43,488.1869 566.67,488.1869 " fill="none" id="LinkerdProxy-to-LinkerdCP" style="stroke:#008000;stroke-width:1.0;"/><polygon fill="#008000" points="572.67,488.1869,563.67,484.1869,567.67,488.1869,563.67,492.1869,572.67,488.1869" style="stroke:#008000;stroke-width:1.0;"/><text fill="#000000" font-family="sans-serif" font-size="13" lengthAdjust="spacing" textLength="111" x="443.75" y="481.2538">service telemetry</text></g><!--link BusinessPods to LinkerdCP--><g id="link_BusinessPods_LinkerdCP"><path d="M210.39,192.0769 C224.94,199.7269 240.77,209.6869 253,221.5969 C316.4,283.2769 281.02,344.9569 356,391.8869 C372.46,402.1869 424.14,395.2669 443,399.8869 C508.79,416.0169 575.4685,446.3835 616.6385,466.8735 " fill="none" id="BusinessPods-to-LinkerdCP" style="stroke:#008000;stroke-width:1.0;"/><polygon fill="#008000" points="622.01,469.5469,615.735,461.9558,617.5337,467.3191,612.1705,469.1178,622.01,469.5469" style="stroke:#008000;stroke-width:1.0;"/><text fill="#000000" font-family="sans-serif" font-size="13" lengthAdjust="spacing" textLength="225" x="312.77" y="311.3038">probes (liveness/readiness/startup)</text></g><!--link Grafana to LinkerdCP--><g id="link_Grafana_LinkerdCP"><path d="M881.61,488.1869 C837.01,488.1869 789.2,488.1869 745.32,488.1869 " fill="none" id="Grafana-to-LinkerdCP" style="stroke:#008000;stroke-width:1.0;"/><polygon fill="#008000" points="739.32,488.1869,748.32,492.1869,744.32,488.1869,748.32,484.1869,739.32,488.1869" style="stroke:#008000;stroke-width:1.0;"/><text fill="#000000" font-family="sans-serif" font-size="13" lengthAdjust="spacing" textLength="97" x="762" y="481.2538">service metrics</text></g><!--link LinkerdProxy to Jaeger--><g id="link_LinkerdProxy_Jaeger"><path d="M398.65,469.6069 C433.82,447.9969 496.06,413.5469 555,399.8869 C612.48,386.5769 1032.12,375.8369 1086,399.8869 C1114.14,412.4569 1133.3304,435.2956 1147.2104,456.3756 " fill="none" id="LinkerdProxy-to-Jaeger" style="stroke:#FF8C00;stroke-width:1.0;"/><polygon fill="#FF8C00" points="1150.51,461.3869,1148.9014,451.6703,1147.7603,457.2108,1142.2197,456.0698,1150.51,461.3869" style="stroke:#FF8C00;stroke-width:1.0;"/><text fill="#000000" font-family="sans-serif" font-size="13" lengthAdjust="spacing" textLength="173" x="676.5" y="387.9538">gRPC auto-instrumentation</text></g><!--link Jaeger to Tempo--><g id="link_Jaeger_Tempo"><path d="M1135.53,514.7269 C1108.87,537.0669 1074.7193,565.6937 1046.5493,589.2937 " fill="none" id="Jaeger-to-Tempo" style="stroke:#FF8C00;stroke-width:1.0;"/><polygon fill="#FF8C00" points="1041.95,593.1469,1051.4177,590.4334,1045.7827,589.9359,1046.2802,584.301,1041.95,593.1469" style="stroke:#FF8C00;stroke-width:1.0;"/><text fill="#000000" font-family="sans-serif" font-size="13" lengthAdjust="spacing" textLength="75" x="1096.58" y="559.5538">push traces</text></g><!--link Grafana to Tempo--><g id="link_Grafana_Tempo"><path d="M971.17,514.6669 C972.31,529.1769 974.56,547.5869 979,563.4869 C981.79,573.4669 983.5087,578.4531 987.7787,587.7631 " fill="none" id="Grafana-to-Tempo" style="stroke:#FF8C00;stroke-width:1.0;"/><polygon fill="#FF8C00" points="990.28,593.2169,990.1638,583.3687,988.1955,588.6721,982.8922,586.7038,990.28,593.2169" style="stroke:#FF8C00;stroke-width:1.0;"/><text fill="#000000" font-family="sans-serif" font-size="13" lengthAdjust="spacing" textLength="80" x="980" y="559.5538">query traces</text></g><!--link User to Grafana--><g id="link_User_Grafana"><path d="M1292.11,345.1269 C1281.18,362.5669 1265.67,381.6969 1246,391.8869 C1209.66,410.7269 1099.68,383.9069 1062,399.8869 C1031.39,412.8769 1008.6316,436.2264 992.0316,457.0364 " fill="none" id="User-to-Grafana" style="stroke:#181818;stroke-width:1.0;"/><polygon fill="#181818" points="988.29,461.7269,997.0293,457.1855,991.408,457.8181,990.7754,452.1968,988.29,461.7269" style="stroke:#181818;stroke-width:1.0;"/><text fill="#000000" font-family="sans-serif" font-size="13" lengthAdjust="spacing" textLength="106" x="1267.79" y="387.9538">view dashboards</text></g><!--SRC=[TLJBRjim4BppAnRkeGvGmtSV0hXocgHrOYDsqKFYmqhQA8HfKYKfDqRHV- -Ib6pbTH6evSpix4DoMwbhjBY3mkngeqdxbJye0ak5Hrqf4ku8AUaH6-NNzEodIbPwnsWe-45M22yzqnQv8xl7N2hf3x3oM6nXHhKoXmYUIQnOIGXjIeB1ZoOdgycJWqmrZdK6y5S0fDlRy1m6FRAGAopfB5q3t0Uc8h-1zFgrSLAJSx1Yj2m8bgPq6q07tKq8HEonJXXSMdn4ZJ1LxEz1pv1sHg_83m8n1fdnJ_2ZKAOfOJ2NUaksF6Qv8VVKMUhfTh2bDS-7ADP6Ok0ZT6QqjqR1Kg6cFYjRTZPgRYTMT7B-gjsDzDJvAT5ZZgu7dfkjVD33kQbuCCQoq5bAm_4FA6jYcynPM-HoNx3YrKSTdQ5xoWtQqgM4xWltobjPy25gkIJIuezjFYbzHwfux9bHYZVHMDRPI-nQajW98vZw6UQBI_WsN_mI_O73wFvJhXhQZCwXtHYOWFEbQJmejYMwQ0yO1yymlWTNMAobhaGAzb2XQK6BT9cKkjBVOdutP0y9n4PlBjPtrzaAnd1rCPslhqH_DmAxiaHwStwQVaoJ5iwpsHqtyl2cpCGQlQJLrkJyRGsLt5C0ZorX6MbZvz7wfZxh-tvNeqkzI_CB9QplfjdrRTllr_PBj5jU4rqHrz1ESGBLtJ83RBmPIUsyRSBV0BqqMhIGbqps4FShrD2u9_1nP_fUtmUdLhTeTlgJtOCCFoWiOZOCkmI3HSqHFeq38EvIE8W87x5UbsW2Uqb_-CFerla_]--></g></svg>