<svg xmlns="http://www.w3.org/2000/svg" xmlns:xlink="http://www.w3.org/1999/xlink" contentStyleType="text/css" height="1043px" preserveAspectRatio="none" style="width:1500px;height:1043px;background:#FFFFFF;" version="1.1" viewBox="0 0 1500 1043" width="1500px" zoomAndPan="magnify"><defs/><g><text fill="#000000" font-family="sans-serif" font-size="14" font-weight="bold" lengthAdjust="spacing" textLength="416" x="538" y="27.9951">Observability Sequence: users → communities query</text><rect fill="#FFFFFF" height="476.2578" style="stroke:#181818;stroke-width:1.0;" width="10" x="143" y="192.8594"/><rect fill="#FFFFFF" height="268.3281" style="stroke:#181818;stroke-width:1.0;" width="10" x="313" y="314.3906"/><rect fill="#FFFFFF" height="179.7969" style="stroke:#181818;stroke-width:1.0;" width="10" x="532" y="373.7891"/><rect fill="#FFFFFF" height="121.5313" style="stroke:#181818;stroke-width:1.0;" width="10" x="752" y="402.9219"/><line style="stroke:#181818;stroke-width:0.5;stroke-dasharray:5.0,5.0;" x1="24" x2="24" y1="118.5938" y2="962.4453"/><line style="stroke:#181818;stroke-width:0.5;stroke-dasharray:5.0,5.0;" x1="148" x2="148" y1="118.5938" y2="962.4453"/><line style="stroke:#181818;stroke-width:0.5;stroke-dasharray:5.0,5.0;" x1="318" x2="318" y1="118.5938" y2="962.4453"/><line style="stroke:#181818;stroke-width:0.5;stroke-dasharray:5.0,5.0;" x1="537" x2="537" y1="118.5938" y2="962.4453"/><line style="stroke:#181818;stroke-width:0.5;stroke-dasharray:5.0,5.0;" x1="757" x2="757" y1="118.5938" y2="962.4453"/><line style="stroke:#181818;stroke-width:0.5;stroke-dasharray:5.0,5.0;" x1="916" x2="916" y1="118.5938" y2="962.4453"/><line style="stroke:#181818;stroke-width:0.5;stroke-dasharray:5.0,5.0;" x1="1027" x2="1027" y1="118.5938" y2="962.4453"/><line style="stroke:#181818;stroke-width:0.5;stroke-dasharray:5.0,5.0;" x1="1148" x2="1148" y1="118.5938" y2="962.4453"/><line style="stroke:#181818;stroke-width:0.5;stroke-dasharray:5.0,5.0;" x1="1272" x2="1272" y1="118.5938" y2="962.4453"/><line style="stroke:#181818;stroke-width:0.5;stroke-dasharray:5.0,5.0;" x1="1407" x2="1407" y1="118.5938" y2="962.4453"/><text fill="#000000" font-family="sans-serif" font-size="14" lengthAdjust="spacing" textLength="32" x="5" y="115.292">User</text><ellipse cx="24" cy="50.7969" fill="#E2E2F0" rx="8" ry="8" style="stroke:#181818;stroke-width:0.5;"/><path d="M24,58.7969 L24,85.7969 M11,66.7969 L37,66.7969 M24,85.7969 L11,100.7969 M24,85.7969 L37,100.7969 " fill="none" style="stroke:#181818;stroke-width:0.5;"/><text fill="#000000" font-family="sans-serif" font-size="14" lengthAdjust="spacing" textLength="32" x="5" y="974.4404">User</text><ellipse cx="24" cy="986.2422" fill="#E2E2F0" rx="8" ry="8" style="stroke:#181818;stroke-width:0.5;"/><path d="M24,994.2422 L24,1021.2422 M11,1002.2422 L37,1002.2422 M24,1021.2422 L11,1036.2422 M24,1021.2422 L37,1036.2422 " fill="none" style="stroke:#181818;stroke-width:0.5;"/><rect fill="#E2E2F0" height="30.2969" rx="2.5" ry="2.5" style="stroke:#181818;stroke-width:0.5;" width="106" x="95" y="87.2969"/><text fill="#000000" font-family="sans-serif" font-size="14" lengthAdjust="spacing" textLength="92" x="102" y="107.292">users service</text><rect fill="#E2E2F0" height="30.2969" rx="2.5" ry="2.5" style="stroke:#181818;stroke-width:0.5;" width="106" x="95" y="961.4453"/><text fill="#000000" font-family="sans-serif" font-size="14" lengthAdjust="spacing" textLength="92" x="102" y="981.4404">users service</text><rect fill="#E2E2F0" height="30.2969" rx="2.5" ry="2.5" style="stroke:#181818;stroke-width:0.5;" width="154" x="241" y="87.2969"/><text fill="#000000" font-family="sans-serif" font-size="14" lengthAdjust="spacing" textLength="140" x="248" y="107.292">linkerd proxy (users)</text><rect fill="#E2E2F0" height="30.2969" rx="2.5" ry="2.5" style="stroke:#181818;stroke-width:0.5;" width="154" x="241" y="961.4453"/><text fill="#000000" font-family="sans-serif" font-size="14" lengthAdjust="spacing" textLength="140" x="248" y="981.4404">linkerd proxy (users)</text><rect fill="#E2E2F0" height="30.2969" rx="2.5" ry="2.5" style="stroke:#181818;stroke-width:0.5;" width="204" x="435" y="87.2969"/><text fill="#000000" font-family="sans-serif" font-size="14" lengthAdjust="spacing" textLength="190" x="442" y="107.292">linkerd proxy (communities)</text><rect fill="#E2E2F0" height="30.2969" rx="2.5" ry="2.5" style="stroke:#181818;stroke-width:0.5;" width="204" x="435" y="961.4453"/><text fill="#000000" font-family="sans-serif" font-size="14" lengthAdjust="spacing" textLength="190" x="442" y="981.4404">linkerd proxy (communities)</text><rect fill="#E2E2F0" height="30.2969" rx="2.5" ry="2.5" style="stroke:#181818;stroke-width:0.5;" width="156" x="679" y="87.2969"/><text fill="#000000" font-family="sans-serif" font-size="14" lengthAdjust="spacing" textLength="142" x="686" y="107.292">communities service</text><rect fill="#E2E2F0" height="30.2969" rx="2.5" ry="2.5" style="stroke:#181818;stroke-width:0.5;" width="156" x="679" y="961.4453"/><text fill="#000000" font-family="sans-serif" font-size="14" lengthAdjust="spacing" textLength="142" x="686" y="981.4404">communities service</text><text fill="#000000" font-family="sans-serif" font-size="14" lengthAdjust="spacing" textLength="106" x="860" y="115.292">Grafana Tempo</text><path d="M898,66.2969 C898,56.2969 916,56.2969 916,56.2969 C916,56.2969 934,56.2969 934,66.2969 L934,92.2969 C934,102.2969 916,102.2969 916,102.2969 C916,102.2969 898,102.2969 898,92.2969 L898,66.2969 " fill="#E2E2F0" style="stroke:#181818;stroke-width:1.5;"/><path d="M898,66.2969 C898,76.2969 916,76.2969 916,76.2969 C916,76.2969 934,76.2969 934,66.2969 " fill="none" style="stroke:#181818;stroke-width:1.5;"/><text fill="#000000" font-family="sans-serif" font-size="14" lengthAdjust="spacing" textLength="106" x="860" y="974.4404">Grafana Tempo</text><path d="M898,987.7422 C898,977.7422 916,977.7422 916,977.7422 C916,977.7422 934,977.7422 934,987.7422 L934,1013.7422 C934,1023.7422 916,1023.7422 916,1023.7422 C916,1023.7422 898,1023.7422 898,1013.7422 L898,987.7422 " fill="#E2E2F0" style="stroke:#181818;stroke-width:1.5;"/><path d="M898,987.7422 C898,997.7422 916,997.7422 916,997.7422 C916,997.7422 934,997.7422 934,987.7422 " fill="none" style="stroke:#181818;stroke-width:1.5;"/><text fill="#000000" font-family="sans-serif" font-size="14" lengthAdjust="spacing" textLength="84" x="982" y="115.292">Grafana Loki</text><path d="M1009,66.2969 C1009,56.2969 1027,56.2969 1027,56.2969 C1027,56.2969 1045,56.2969 1045,66.2969 L1045,92.2969 C1045,102.2969 1027,102.2969 1027,102.2969 C1027,102.2969 1009,102.2969 1009,92.2969 L1009,66.2969 " fill="#E2E2F0" style="stroke:#181818;stroke-width:1.5;"/><path d="M1009,66.2969 C1009,76.2969 1027,76.2969 1027,76.2969 C1027,76.2969 1045,76.2969 1045,66.2969 " fill="none" style="stroke:#181818;stroke-width:1.5;"/><text fill="#000000" font-family="sans-serif" font-size="14" lengthAdjust="spacing" textLength="84" x="982" y="974.4404">Grafana Loki</text><path d="M1009,987.7422 C1009,977.7422 1027,977.7422 1027,977.7422 C1027,977.7422 1045,977.7422 1045,987.7422 L1045,1013.7422 C1045,1023.7422 1027,1023.7422 1027,1023.7422 C1027,1023.7422 1009,1023.7422 1009,1013.7422 L1009,987.7422 " fill="#E2E2F0" style="stroke:#181818;stroke-width:1.5;"/><path d="M1009,987.7422 C1009,997.7422 1027,997.7422 1027,997.7422 C1027,997.7422 1045,997.7422 1045,987.7422 " fill="none" style="stroke:#181818;stroke-width:1.5;"/><rect fill="#E2E2F0" height="30.2969" rx="2.5" ry="2.5" style="stroke:#181818;stroke-width:0.5;" width="102" x="1097" y="87.2969"/><text fill="#000000" font-family="sans-serif" font-size="14" lengthAdjust="spacing" textLength="88" x="1104" y="107.292">Grafana Alloy</text><rect fill="#E2E2F0" height="30.2969" rx="2.5" ry="2.5" style="stroke:#181818;stroke-width:0.5;" width="102" x="1097" y="961.4453"/><text fill="#000000" font-family="sans-serif" font-size="14" lengthAdjust="spacing" textLength="88" x="1104" y="981.4404">Grafana Alloy</text><rect fill="#E2E2F0" height="30.2969" rx="2.5" ry="2.5" style="stroke:#181818;stroke-width:0.5;" width="67" x="1239" y="87.2969"/><text fill="#000000" font-family="sans-serif" font-size="14" lengthAdjust="spacing" textLength="53" x="1246" y="107.292">Kubelet</text><rect fill="#E2E2F0" height="30.2969" rx="2.5" ry="2.5" style="stroke:#181818;stroke-width:0.5;" width="67" x="1239" y="961.4453"/><text fill="#000000" font-family="sans-serif" font-size="14" lengthAdjust="spacing" textLength="53" x="1246" y="981.4404">Kubelet</text><rect fill="#E2E2F0" height="30.2969" rx="2.5" ry="2.5" style="stroke:#181818;stroke-width:0.5;" width="122" x="1346" y="87.2969"/><text fill="#000000" font-family="sans-serif" font-size="14" lengthAdjust="spacing" textLength="108" x="1353" y="107.292">Jaeger Collector</text><rect fill="#E2E2F0" height="30.2969" rx="2.5" ry="2.5" style="stroke:#181818;stroke-width:0.5;" width="122" x="1346" y="961.4453"/><text fill="#000000" font-family="sans-serif" font-size="14" lengthAdjust="spacing" textLength="108" x="1353" y="981.4404">Jaeger Collector</text><rect fill="#FFFFFF" height="476.2578" style="stroke:#181818;stroke-width:1.0;" width="10" x="143" y="192.8594"/><rect fill="#FFFFFF" height="268.3281" style="stroke:#181818;stroke-width:1.0;" width="10" x="313" y="314.3906"/><rect fill="#FFFFFF" height="179.7969" style="stroke:#181818;stroke-width:1.0;" width="10" x="532" y="373.7891"/><rect fill="#FFFFFF" height="121.5313" style="stroke:#181818;stroke-width:1.0;" width="10" x="752" y="402.9219"/><rect fill="#EEEEEE" height="3" style="stroke:#EEEEEE;stroke-width:1.0;" width="1493" x="0" y="149.1602"/><line style="stroke:#000000;stroke-width:1.0;" x1="0" x2="1493" y1="149.1602" y2="149.1602"/><line style="stroke:#000000;stroke-width:1.0;" x1="0" x2="1493" y1="152.1602" y2="152.1602"/><rect fill="#EEEEEE" height="23.1328" style="stroke:#000000;stroke-width:2.0;" width="121" x="686" y="138.5938"/><text fill="#000000" font-family="sans-serif" font-size="13" font-weight="bold" lengthAdjust="spacing" textLength="102" x="692" y="154.6606">Start Request</text><polygon fill="#181818" points="131,188.8594,141,192.8594,131,196.8594,135,192.8594" style="stroke:#181818;stroke-width:1.0;"/><line style="stroke:#181818;stroke-width:1.0;" x1="24" x2="137" y1="192.8594" y2="192.8594"/><text fill="#000000" font-family="sans-serif" font-size="13" lengthAdjust="spacing" textLength="32" x="41" y="187.7935">HTTP</text><text fill="#000000" font-family="sans-serif" font-size="13" lengthAdjust="spacing" textLength="4" x="73" y="187.7935"> </text><text fill="#000000" font-family="sans-serif" font-size="13" lengthAdjust="spacing" textLength="49" x="77" y="187.7935">request</text><line style="stroke:#181818;stroke-width:1.0;" x1="153" x2="195" y1="237.125" y2="237.125"/><line style="stroke:#181818;stroke-width:1.0;" x1="195" x2="195" y1="237.125" y2="250.125"/><line style="stroke:#181818;stroke-width:1.0;" x1="154" x2="195" y1="250.125" y2="250.125"/><polygon fill="#181818" points="164,246.125,154,250.125,164,254.125,160,250.125" style="stroke:#181818;stroke-width:1.0;"/><text fill="#000000" font-family="sans-serif" font-size="13" lengthAdjust="spacing" textLength="19" x="160" y="216.9263">log</text><text fill="#000000" font-family="sans-serif" font-size="13" lengthAdjust="spacing" textLength="4" x="179" y="216.9263"> </text><text fill="#000000" font-family="sans-serif" font-size="13" lengthAdjust="spacing" textLength="62" x="183" y="216.9263">"Received</text><text fill="#000000" font-family="sans-serif" font-size="13" lengthAdjust="spacing" textLength="54" x="175.5" y="232.0591">request"</text><path d="M158,263.125 L158,288.125 L287,288.125 L287,273.125 L277,263.125 L158,263.125 " fill="#FEFFDD" style="stroke:#181818;stroke-width:0.5;"/><path d="M277,263.125 L277,273.125 L287,273.125 L277,263.125 " fill="#FEFFDD" style="stroke:#181818;stroke-width:0.5;"/><text fill="#000000" font-family="sans-serif" font-size="13" lengthAdjust="spacing" textLength="108" x="164" y="280.1919">stdout → Kubelet</text><polygon fill="#181818" points="301,310.3906,311,314.3906,301,318.3906,305,314.3906" style="stroke:#181818;stroke-width:1.0;"/><line style="stroke:#181818;stroke-width:1.0;" x1="153" x2="307" y1="314.3906" y2="314.3906"/><text fill="#000000" font-family="sans-serif" font-size="13" lengthAdjust="spacing" textLength="69" x="186" y="309.3247">gRPC/HTTP</text><text fill="#000000" font-family="sans-serif" font-size="13" lengthAdjust="spacing" textLength="4" x="255" y="309.3247"> </text><text fill="#000000" font-family="sans-serif" font-size="13" lengthAdjust="spacing" textLength="21" x="259" y="309.3247">call</text><polygon fill="#181818" points="520,369.7891,530,373.7891,520,377.7891,524,373.7891" style="stroke:#181818;stroke-width:1.0;"/><line style="stroke:#181818;stroke-width:1.0;" x1="323" x2="526" y1="373.7891" y2="373.7891"/><text fill="#000000" font-family="sans-serif" font-size="13" lengthAdjust="spacing" textLength="46" x="384.5" y="338.4575">Linkerd</text><text fill="#000000" font-family="sans-serif" font-size="13" lengthAdjust="spacing" textLength="4" x="430.5" y="338.4575"> </text><text fill="#000000" font-family="sans-serif" font-size="13" lengthAdjust="spacing" textLength="36" x="434.5" y="338.4575">mesh</text><text fill="#000000" font-family="sans-serif" font-size="13" lengthAdjust="spacing" textLength="34" x="392" y="353.5903">inject</text><text fill="#000000" font-family="sans-serif" font-size="13" lengthAdjust="spacing" textLength="4" x="426" y="353.5903"> </text><text fill="#000000" font-family="sans-serif" font-size="13" lengthAdjust="spacing" textLength="33" x="430" y="353.5903">trace</text><text fill="#000000" font-family="sans-serif" font-size="13" lengthAdjust="spacing" textLength="52" x="401.5" y="368.7231">headers</text><polygon fill="#181818" points="740,398.9219,750,402.9219,740,406.9219,744,402.9219" style="stroke:#181818;stroke-width:1.0;"/><line style="stroke:#181818;stroke-width:1.0;" x1="542" x2="746" y1="402.9219" y2="402.9219"/><text fill="#000000" font-family="sans-serif" font-size="13" lengthAdjust="spacing" textLength="47" x="611" y="397.856">forward</text><text fill="#000000" font-family="sans-serif" font-size="13" lengthAdjust="spacing" textLength="4" x="658" y="397.856"> </text><text fill="#000000" font-family="sans-serif" font-size="13" lengthAdjust="spacing" textLength="21" x="662" y="397.856">call</text><line style="stroke:#181818;stroke-width:1.0;" x1="762" x2="804" y1="447.1875" y2="447.1875"/><line style="stroke:#181818;stroke-width:1.0;" x1="804" x2="804" y1="447.1875" y2="460.1875"/><line style="stroke:#181818;stroke-width:1.0;" x1="763" x2="804" y1="460.1875" y2="460.1875"/><polygon fill="#181818" points="773,456.1875,763,460.1875,773,464.1875,769,460.1875" style="stroke:#181818;stroke-width:1.0;"/><text fill="#000000" font-family="sans-serif" font-size="13" lengthAdjust="spacing" textLength="19" x="769" y="426.9888">log</text><text fill="#000000" font-family="sans-serif" font-size="13" lengthAdjust="spacing" textLength="4" x="788" y="426.9888"> </text><text fill="#000000" font-family="sans-serif" font-size="13" lengthAdjust="spacing" textLength="74" x="792" y="426.9888">"Processing</text><text fill="#000000" font-family="sans-serif" font-size="13" lengthAdjust="spacing" textLength="54" x="790.5" y="442.1216">request"</text><path d="M767,473.1875 L767,498.1875 L896,498.1875 L896,483.1875 L886,473.1875 L767,473.1875 " fill="#FEFFDD" style="stroke:#181818;stroke-width:0.5;"/><path d="M886,473.1875 L886,483.1875 L896,483.1875 L886,473.1875 " fill="#FEFFDD" style="stroke:#181818;stroke-width:0.5;"/><text fill="#000000" font-family="sans-serif" font-size="13" lengthAdjust="spacing" textLength="108" x="773" y="490.2544">stdout → Kubelet</text><polygon fill="#181818" points="553,520.4531,543,524.4531,553,528.4531,549,524.4531" style="stroke:#181818;stroke-width:1.0;"/><line style="stroke:#181818;stroke-width:1.0;stroke-dasharray:2.0,2.0;" x1="547" x2="756" y1="524.4531" y2="524.4531"/><text fill="#000000" font-family="sans-serif" font-size="13" lengthAdjust="spacing" textLength="59" x="620" y="519.3872">response</text><polygon fill="#181818" points="334,549.5859,324,553.5859,334,557.5859,330,553.5859" style="stroke:#181818;stroke-width:1.0;"/><line style="stroke:#181818;stroke-width:1.0;stroke-dasharray:2.0,2.0;" x1="328" x2="536" y1="553.5859" y2="553.5859"/><text fill="#000000" font-family="sans-serif" font-size="13" lengthAdjust="spacing" textLength="59" x="400.5" y="548.52">response</text><polygon fill="#181818" points="164,578.7188,154,582.7188,164,586.7188,160,582.7188" style="stroke:#181818;stroke-width:1.0;"/><line style="stroke:#181818;stroke-width:1.0;stroke-dasharray:2.0,2.0;" x1="158" x2="317" y1="582.7188" y2="582.7188"/><text fill="#000000" font-family="sans-serif" font-size="13" lengthAdjust="spacing" textLength="59" x="206" y="577.6528">response</text><line style="stroke:#181818;stroke-width:1.0;" x1="153" x2="195" y1="626.9844" y2="626.9844"/><line style="stroke:#181818;stroke-width:1.0;" x1="195" x2="195" y1="626.9844" y2="639.9844"/><line style="stroke:#181818;stroke-width:1.0;" x1="154" x2="195" y1="639.9844" y2="639.9844"/><polygon fill="#181818" points="164,635.9844,154,639.9844,164,643.9844,160,639.9844" style="stroke:#181818;stroke-width:1.0;"/><text fill="#000000" font-family="sans-serif" font-size="13" lengthAdjust="spacing" textLength="19" x="160" y="606.7856">log</text><text fill="#000000" font-family="sans-serif" font-size="13" lengthAdjust="spacing" textLength="4" x="179" y="606.7856"> </text><text fill="#000000" font-family="sans-serif" font-size="13" lengthAdjust="spacing" textLength="57" x="183" y="606.7856">"Sending</text><text fill="#000000" font-family="sans-serif" font-size="13" lengthAdjust="spacing" textLength="64" x="168" y="621.9185">response"</text><polygon fill="#181818" points="35,665.1172,25,669.1172,35,673.1172,31,669.1172" style="stroke:#181818;stroke-width:1.0;"/><line style="stroke:#181818;stroke-width:1.0;stroke-dasharray:2.0,2.0;" x1="29" x2="147" y1="669.1172" y2="669.1172"/><text fill="#000000" font-family="sans-serif" font-size="13" lengthAdjust="spacing" textLength="32" x="38.5" y="664.0513">HTTP</text><text fill="#000000" font-family="sans-serif" font-size="13" lengthAdjust="spacing" textLength="4" x="70.5" y="664.0513"> </text><text fill="#000000" font-family="sans-serif" font-size="13" lengthAdjust="spacing" textLength="59" x="74.5" y="664.0513">response</text><rect fill="#EEEEEE" height="3" style="stroke:#EEEEEE;stroke-width:1.0;" width="1493" x="0" y="697.6836"/><line style="stroke:#000000;stroke-width:1.0;" x1="0" x2="1493" y1="697.6836" y2="697.6836"/><line style="stroke:#000000;stroke-width:1.0;" x1="0" x2="1493" y1="700.6836" y2="700.6836"/><rect fill="#EEEEEE" height="23.1328" style="stroke:#000000;stroke-width:2.0;" width="193" x="650" y="687.1172"/><text fill="#000000" font-family="sans-serif" font-size="13" font-weight="bold" lengthAdjust="spacing" textLength="174" x="656" y="703.1841">Observability Collection</text><path d="M1093,725.25 L1093,750.25 L1327,750.25 L1327,735.25 L1317,725.25 L1093,725.25 " fill="#FEFFDD" style="stroke:#181818;stroke-width:0.5;"/><path d="M1317,725.25 L1317,735.25 L1327,735.25 L1317,725.25 " fill="#FEFFDD" style="stroke:#181818;stroke-width:0.5;"/><text fill="#000000" font-family="sans-serif" font-size="13" lengthAdjust="spacing" textLength="91" x="1160" y="742.3169">Logs collected</text><polygon fill="#181818" points="1159,772.5156,1149,776.5156,1159,780.5156,1155,776.5156" style="stroke:#181818;stroke-width:1.0;"/><line style="stroke:#181818;stroke-width:1.0;" x1="1153" x2="1271.5" y1="776.5156" y2="776.5156"/><text fill="#000000" font-family="sans-serif" font-size="13" lengthAdjust="spacing" textLength="60" x="1165.25" y="771.4497">container</text><text fill="#000000" font-family="sans-serif" font-size="13" lengthAdjust="spacing" textLength="4" x="1225.25" y="771.4497"> </text><text fill="#000000" font-family="sans-serif" font-size="13" lengthAdjust="spacing" textLength="26" x="1229.25" y="771.4497">logs</text><polygon fill="#181818" points="1038,801.6484,1028,805.6484,1038,809.6484,1034,805.6484" style="stroke:#181818;stroke-width:1.0;"/><line style="stroke:#181818;stroke-width:1.0;" x1="1032" x2="1147" y1="805.6484" y2="805.6484"/><text fill="#000000" font-family="sans-serif" font-size="13" lengthAdjust="spacing" textLength="47" x="1049" y="800.5825">forward</text><text fill="#000000" font-family="sans-serif" font-size="13" lengthAdjust="spacing" textLength="4" x="1096" y="800.5825"> </text><text fill="#000000" font-family="sans-serif" font-size="13" lengthAdjust="spacing" textLength="26" x="1100" y="800.5825">logs</text><path d="M236,818.6484 L236,843.6484 L1488,843.6484 L1488,828.6484 L1478,818.6484 L236,818.6484 " fill="#FEFFDD" style="stroke:#181818;stroke-width:0.5;"/><path d="M1478,818.6484 L1478,828.6484 L1488,828.6484 L1478,818.6484 " fill="#FEFFDD" style="stroke:#181818;stroke-width:0.5;"/><text fill="#000000" font-family="sans-serif" font-size="13" lengthAdjust="spacing" textLength="166" x="774.5" y="835.7153">Spans emitted via Linkerd</text><polygon fill="#181818" points="1395,896.1797,1405,900.1797,1395,904.1797,1399,900.1797" style="stroke:#181818;stroke-width:1.0;"/><line style="stroke:#181818;stroke-width:1.0;" x1="318" x2="1401" y1="900.1797" y2="900.1797"/><text fill="#000000" font-family="sans-serif" font-size="13" lengthAdjust="spacing" textLength="31" x="847" y="864.8481">send</text><text fill="#000000" font-family="sans-serif" font-size="13" lengthAdjust="spacing" textLength="68" x="828.5" y="879.981">trace/span</text><text fill="#000000" font-family="sans-serif" font-size="13" lengthAdjust="spacing" textLength="29" x="848" y="895.1138">data</text><polygon fill="#181818" points="927,940.4453,917,944.4453,927,948.4453,923,944.4453" style="stroke:#181818;stroke-width:1.0;"/><line style="stroke:#181818;stroke-width:1.0;" x1="921" x2="1406" y1="944.4453" y2="944.4453"/><text fill="#000000" font-family="sans-serif" font-size="13" lengthAdjust="spacing" textLength="31" x="1127.5" y="924.2466">send</text><text fill="#000000" font-family="sans-serif" font-size="13" lengthAdjust="spacing" textLength="4" x="1158.5" y="924.2466"> </text><text fill="#000000" font-family="sans-serif" font-size="13" lengthAdjust="spacing" textLength="33" x="1162.5" y="924.2466">trace</text><text fill="#000000" font-family="sans-serif" font-size="13" lengthAdjust="spacing" textLength="29" x="1147" y="939.3794">data</text><!--SRC=[VPHBRXin38RtEWKngnP8aMJHZG4N2Bn8aQQeuSUk6tg67YlMIAuakt4Fq0FqY3r9gSVO6iJkPY28tqzIV8pRIhr3Ynqu-h4dNTDNSWvRUb2orL2JzcI5Er7yzRAMEzH-YaqZTGlt7mjxXw_PmLp-8hY_knF2Iwy8lgqSsGEkf9B-2FCSRGHxldRmz_SVg4tNxRNqaXomrHw5mDeR2zMIcGhGGJY88WUeaZoubZMT63U4bDHRiWtih7azmhkeUH_XQRXP_fSkqYeqaw6cpBrCPdA-5mrwNA4Zg1ujhb4ZBAZRcSZ5qmNYsMnb1C9X6B977fGonyZ4qn3wib-H8X_D-Jm4df1QifodKXIA7SbqASHu37FFDCn2kvo7yLY4yiA7JwdCC8BFYyKKRBA7Via3UifDI4m1AzD2DQEQv86QNbK9RLXYPRlnODOdsFd6x7qSZJxriyVKEARQsNHo6vEeKQbp1hcpcUiL4rOyv_vsv3RVjTGl_73m5ck23M4J4XzwcOYiPIz5GzdLsjYVoAw6eSkcYrBmHX_hmSvhtfcmIrSgCXHTgCiWIFbMIsvdj2FHqCNq-eUL5RsaAUkmZ7ZVfQlqyahxvwIRzDOah7ekW-UPUkiuZLMOo-7l98-lD3gCQ2oUER2hN9-Rk1cXzQPr_9-9C3KYcqEAFL4RxL5grdAoJgHhjeVzAneUZKMWzEARl4qZcFDsEQ1EUeu31udzr1K3UO8TLoGDuArZ7OJVWCXMvkA_OO15uXy0]--></g></svg>