<svg xmlns="http://www.w3.org/2000/svg" xmlns:xlink="http://www.w3.org/1999/xlink" contentStyleType="text/css" height="580px" preserveAspectRatio="none" style="width:1129px;height:580px;background:#FFFFFF;" version="1.1" viewBox="0 0 1129 580" width="1129px" zoomAndPan="magnify"><defs/><g><text fill="#000000" font-family="sans-serif" font-size="14" font-weight="bold" lengthAdjust="spacing" textLength="320" x="397.945" y="22.9951">Beep Microservices Component Diagram</text><!--cluster Users Domain--><g id="cluster_Users Domain"><path d="M75.39,193.8969 L185.39,193.8969 A3.75,3.75 0 0 1 187.89,196.3969 L194.89,216.1938 L276.39,216.1938 A2.5,2.5 0 0 1 278.89,218.6938 L278.89,570.5269 A2.5,2.5 0 0 1 276.39,573.0269 L75.39,573.0269 A2.5,2.5 0 0 1 72.89,570.5269 L72.89,196.3969 A2.5,2.5 0 0 1 75.39,193.8969 " fill="none" style="stroke:#000000;stroke-width:1.5;"/><line style="stroke:#000000;stroke-width:1.5;" x1="72.89" x2="194.89" y1="216.1938" y2="216.1938"/><text fill="#000000" font-family="sans-serif" font-size="14" font-weight="bold" lengthAdjust="spacing" textLength="109" x="76.89" y="208.892">Users Domain</text></g><!--cluster Communities Domain--><g id="cluster_Communities Domain"><path d="M756.39,193.8969 L922.39,193.8969 A3.75,3.75 0 0 1 924.89,196.3969 L931.89,216.1938 L1120.39,216.1938 A2.5,2.5 0 0 1 1122.89,218.6938 L1122.89,562.3769 A2.5,2.5 0 0 1 1120.39,564.8769 L756.39,564.8769 A2.5,2.5 0 0 1 753.89,562.3769 L753.89,196.3969 A2.5,2.5 0 0 1 756.39,193.8969 " fill="none" style="stroke:#000000;stroke-width:1.5;"/><line style="stroke:#000000;stroke-width:1.5;" x1="753.89" x2="931.89" y1="216.1938" y2="216.1938"/><text fill="#000000" font-family="sans-serif" font-size="14" font-weight="bold" lengthAdjust="spacing" textLength="165" x="757.89" y="208.892">Communities Domain</text></g><!--cluster Communication Domain--><g id="cluster_Communication Domain"><path d="M305.39,43.2969 L490.39,43.2969 A3.75,3.75 0 0 1 492.89,45.7969 L499.89,65.5938 L621.39,65.5938 A2.5,2.5 0 0 1 623.89,68.0938 L623.89,291.3369 A2.5,2.5 0 0 1 621.39,293.8369 L305.39,293.8369 A2.5,2.5 0 0 1 302.89,291.3369 L302.89,45.7969 A2.5,2.5 0 0 1 305.39,43.2969 " fill="none" style="stroke:#000000;stroke-width:1.5;"/><line style="stroke:#000000;stroke-width:1.5;" x1="302.89" x2="499.89" y1="65.5938" y2="65.5938"/><text fill="#000000" font-family="sans-serif" font-size="14" font-weight="bold" lengthAdjust="spacing" textLength="184" x="306.89" y="58.292">Communication Domain</text></g><!--entity Users--><g id="elem_Users"><rect fill="#F1F1F1" height="36.2969" rx="2.5" ry="2.5" style="stroke:#181818;stroke-width:0.5;" width="114" x="148.89" y="228.8969"/><text fill="#000000" font-family="sans-serif" font-size="14" lengthAdjust="spacing" textLength="94" x="158.89" y="251.892">Users Service</text></g><!--entity Auth--><g id="elem_Auth"><rect fill="#F1F1F1" height="52.5938" rx="2.5" ry="2.5" style="stroke:#181818;stroke-width:0.5;" width="174" x="88.89" y="361.3369"/><text fill="#000000" font-family="sans-serif" font-size="14" lengthAdjust="spacing" textLength="154" x="98.89" y="384.332">Authentication Service</text><text fill="#000000" font-family="sans-serif" font-size="14" lengthAdjust="spacing" textLength="71" x="98.89" y="400.6289">(Keycloak)</text></g><!--entity KeycloakDB--><g id="elem_KeycloakDB"><path d="M91.39,505.4369 C91.39,495.4369 146.89,495.4369 146.89,495.4369 C146.89,495.4369 202.39,495.4369 202.39,505.4369 L202.39,547.0306 C202.39,557.0306 146.89,557.0306 146.89,557.0306 C146.89,557.0306 91.39,557.0306 91.39,547.0306 L91.39,505.4369 " fill="#F1F1F1" style="stroke:#181818;stroke-width:0.5;"/><path d="M91.39,505.4369 C91.39,515.4369 146.89,515.4369 146.89,515.4369 C146.89,515.4369 202.39,515.4369 202.39,505.4369 " fill="none" style="stroke:#181818;stroke-width:0.5;"/><text fill="#000000" font-family="sans-serif" font-size="14" lengthAdjust="spacing" textLength="86" x="101.39" y="532.432">Keycloak DB</text><text fill="#000000" font-family="sans-serif" font-size="14" lengthAdjust="spacing" textLength="91" x="101.39" y="548.7289">(PostgreSQL)</text></g><!--entity Communities--><g id="elem_Communities"><rect fill="#F1F1F1" height="36.2969" rx="2.5" ry="2.5" style="stroke:#181818;stroke-width:0.5;" width="165" x="773.39" y="228.8969"/><text fill="#000000" font-family="sans-serif" font-size="14" lengthAdjust="spacing" textLength="145" x="783.39" y="251.892">Communities Service</text></g><!--entity CommunitiesDB--><g id="elem_CommunitiesDB"><path d="M769.89,366.8369 C769.89,356.8369 837.89,356.8369 837.89,356.8369 C837.89,356.8369 905.89,356.8369 905.89,366.8369 L905.89,408.4306 C905.89,418.4306 837.89,418.4306 837.89,418.4306 C837.89,418.4306 769.89,418.4306 769.89,408.4306 L769.89,366.8369 " fill="#F1F1F1" style="stroke:#181818;stroke-width:0.5;"/><path d="M769.89,366.8369 C769.89,376.8369 837.89,376.8369 837.89,376.8369 C837.89,376.8369 905.89,376.8369 905.89,366.8369 " fill="none" style="stroke:#181818;stroke-width:0.5;"/><text fill="#000000" font-family="sans-serif" font-size="14" lengthAdjust="spacing" textLength="116" x="779.89" y="393.832">Communities DB</text><text fill="#000000" font-family="sans-serif" font-size="14" lengthAdjust="spacing" textLength="91" x="779.89" y="410.1289">(PostgreSQL)</text></g><!--entity Authorization--><g id="elem_Authorization"><rect fill="#F1F1F1" height="52.5938" rx="2.5" ry="2.5" style="stroke:#181818;stroke-width:0.5;" width="165" x="941.39" y="361.3369"/><text fill="#000000" font-family="sans-serif" font-size="14" lengthAdjust="spacing" textLength="145" x="951.39" y="384.332">Authorization Service</text><text fill="#000000" font-family="sans-serif" font-size="14" lengthAdjust="spacing" textLength="70" x="951.39" y="400.6289">(AuthZed)</text></g><!--entity AuthZedDB--><g id="elem_AuthZedDB"><path d="M971.39,513.5769 C971.39,503.5769 1023.89,503.5769 1023.89,503.5769 C1023.89,503.5769 1076.39,503.5769 1076.39,513.5769 L1076.39,538.8738 C1076.39,548.8738 1023.89,548.8738 1023.89,548.8738 C1023.89,548.8738 971.39,548.8738 971.39,538.8738 L971.39,513.5769 " fill="#F1F1F1" style="stroke:#181818;stroke-width:0.5;"/><path d="M971.39,513.5769 C971.39,523.5769 1023.89,523.5769 1023.89,523.5769 C1023.89,523.5769 1076.39,523.5769 1076.39,513.5769 " fill="none" style="stroke:#181818;stroke-width:0.5;"/><text fill="#000000" font-family="sans-serif" font-size="14" lengthAdjust="spacing" textLength="85" x="981.39" y="540.572">AuthZed DB</text></g><!--entity Messaging--><g id="elem_Messaging"><rect fill="#F1F1F1" height="36.2969" rx="2.5" ry="2.5" style="stroke:#181818;stroke-width:0.5;" width="149" x="459.39" y="86.4469"/><text fill="#000000" font-family="sans-serif" font-size="14" lengthAdjust="spacing" textLength="129" x="469.39" y="109.442">Messaging Service</text></g><!--entity MongoDB--><g id="elem_MongoDB"><path d="M457.89,226.2469 C457.89,216.2469 515.89,216.2469 515.89,216.2469 C515.89,216.2469 573.89,216.2469 573.89,226.2469 L573.89,267.8406 C573.89,277.8406 515.89,277.8406 515.89,277.8406 C515.89,277.8406 457.89,277.8406 457.89,267.8406 L457.89,226.2469 " fill="#F1F1F1" style="stroke:#181818;stroke-width:0.5;"/><path d="M457.89,226.2469 C457.89,236.2469 515.89,236.2469 515.89,236.2469 C515.89,236.2469 573.89,236.2469 573.89,226.2469 " fill="none" style="stroke:#181818;stroke-width:0.5;"/><text fill="#000000" font-family="sans-serif" font-size="14" lengthAdjust="spacing" textLength="96" x="467.89" y="253.242">Messages DB</text><text fill="#000000" font-family="sans-serif" font-size="14" lengthAdjust="spacing" textLength="79" x="467.89" y="269.5389">(MongoDB)</text></g><!--entity Files--><g id="elem_Files"><rect fill="#F1F1F1" height="36.2969" rx="2.5" ry="2.5" style="stroke:#181818;stroke-width:0.5;" width="105" x="318.39" y="228.8969"/><text fill="#000000" font-family="sans-serif" font-size="14" lengthAdjust="spacing" textLength="85" x="328.39" y="251.892">Files Service</text></g><!--entity Calls--><g id="elem_Calls"><rect fill="#F1F1F1" height="52.5938" rx="2.5" ry="2.5" style="stroke:#181818;stroke-width:0.5;" width="106" x="318.89" y="78.2969"/><text fill="#000000" font-family="sans-serif" font-size="14" lengthAdjust="spacing" textLength="86" x="328.89" y="101.292">Calls Service</text><text fill="#000000" font-family="sans-serif" font-size="14" lengthAdjust="spacing" textLength="70" x="328.89" y="117.5889">(WebRTC)</text></g><!--link Users to Auth--><g id="link_Users_Auth"><path d="M201,265.5369 C197.64,277.8669 193.21,294.7969 189.89,309.8369 C186.16,326.7769 183.6714,340.0627 181.1114,355.0327 " fill="none" id="Users-to-Auth" style="stroke:#181818;stroke-width:1.0;"/><polygon fill="#181818" points="180.1,360.9469,185.5598,352.7499,180.9428,356.0184,177.6743,351.4014,180.1,360.9469" style="stroke:#181818;stroke-width:1.0;"/><text fill="#000000" font-family="sans-serif" font-size="13" lengthAdjust="spacing" textLength="102" x="190.89" y="322.9038">uses for identity</text></g><!--link Auth to KeycloakDB--><g id="link_Auth_KeycloakDB"><path d="M170.44,414.3269 C165.55,437.3569 159.6274,465.278 154.4774,489.508 " fill="none" id="Auth-to-KeycloakDB" style="stroke:#181818;stroke-width:1.0;"/><polygon fill="#181818" points="153.23,495.3769,159.0137,487.4051,154.2695,490.4861,151.1885,485.7419,153.23,495.3769" style="stroke:#181818;stroke-width:1.0;"/><text fill="#000000" font-family="sans-serif" font-size="13" lengthAdjust="spacing" textLength="114" x="164.13" y="461.5038">stores credentials</text></g><!--link Communities to Authorization--><g id="link_Communities_Authorization"><path d="M852.49,265.6069 C850.16,282.9569 849.56,309.3669 862.89,326.8369 C868.46,334.1269 900.1582,346.289 937.4982,358.959 " fill="none" id="Communities-to-Authorization" style="stroke:#181818;stroke-width:1.0;"/><polygon fill="#181818" points="943.18,360.8869,935.9425,354.2071,938.4451,359.2803,933.372,361.7829,943.18,360.8869" style="stroke:#181818;stroke-width:1.0;"/><text fill="#000000" font-family="sans-serif" font-size="13" lengthAdjust="spacing" textLength="118" x="863.89" y="322.9038">permission checks</text></g><!--link Communities to CommunitiesDB--><g id="link_Communities_CommunitiesDB"><path d="M846.31,265.5569 C840.27,277.6069 833.05,294.2069 829.89,309.8369 C826.82,325.0769 827.1735,336.3602 829.5735,350.6102 " fill="none" id="Communities-to-CommunitiesDB" style="stroke:#181818;stroke-width:1.0;"/><polygon fill="#181818" points="830.57,356.5269,833.0197,346.9875,829.7396,351.5963,825.1308,348.3162,830.57,356.5269" style="stroke:#181818;stroke-width:1.0;"/></g><!--link Authorization to AuthZedDB--><g id="link_Authorization_AuthZedDB"><path d="M1023.89,414.3269 C1023.89,439.9869 1023.89,472.9969 1023.89,497.2569 " fill="none" id="Authorization-to-AuthZedDB" style="stroke:#181818;stroke-width:1.0;"/><polygon fill="#181818" points="1023.89,503.2569,1027.89,494.2569,1023.89,498.2569,1019.89,494.2569,1023.89,503.2569" style="stroke:#181818;stroke-width:1.0;"/></g><!--link Messaging to MongoDB--><g id="link_Messaging_MongoDB"><path d="M531.65,123.0969 C528.67,146.3369 524.1339,181.7757 520.5039,210.0557 " fill="none" id="Messaging-to-MongoDB" style="stroke:#181818;stroke-width:1.0;"/><polygon fill="#181818" points="519.74,216.0069,524.8533,207.5894,520.3766,211.0476,516.9184,206.5709,519.74,216.0069" style="stroke:#181818;stroke-width:1.0;"/></g><!--link Messaging to Files--><g id="link_Messaging_Files"><path d="M511.24,123.1869 C497.64,133.8869 480.08,147.9469 464.89,160.8969 C438.25,183.6069 412.8309,206.8579 394.0709,224.3279 " fill="none" id="Messaging-to-Files" style="stroke:#181818;stroke-width:1.0;"/><polygon fill="#181818" points="389.68,228.4169,398.9924,225.2107,393.3391,225.0094,393.5404,219.3561,389.68,228.4169" style="stroke:#181818;stroke-width:1.0;"/><text fill="#000000" font-family="sans-serif" font-size="13" lengthAdjust="spacing" textLength="50" x="465.89" y="173.9638">file links</text></g><!--link Messaging to Users--><g id="link_Messaging_Users"><path d="M471.63,123.1469 C424.28,137.4669 358.09,159.5869 302.89,185.8969 C277.14,198.1669 254.6358,212.2992 235.5258,225.2592 " fill="none" id="Messaging-to-Users" style="stroke:#181818;stroke-width:1.0;"/><polygon fill="#181818" points="230.56,228.6269,240.2538,226.8859,234.6981,225.8205,235.7635,220.2649,230.56,228.6269" style="stroke:#181818;stroke-width:1.0;"/><text fill="#000000" font-family="sans-serif" font-size="13" lengthAdjust="spacing" textLength="55" x="359.28" y="173.9638">user info</text></g><!--link Messaging to Auth--><g id="link_Messaging_Auth"><path d="M551.39,123.2369 C565.12,138.4069 583.16,161.6269 590.89,185.8969 C606.55,234.9869 615.07,256.3269 590.89,301.8369 C560.54,358.9869 381.7613,377.3131 269.2413,383.3931 " fill="none" id="Messaging-to-Auth" style="stroke:#181818;stroke-width:1.0;"/><polygon fill="#181818" points="263.25,383.7169,272.4527,387.2254,268.2427,383.4471,272.0211,379.2371,263.25,383.7169" style="stroke:#181818;stroke-width:1.0;"/><text fill="#000000" font-family="sans-serif" font-size="13" lengthAdjust="spacing" textLength="92" x="607" y="251.6138">authentication</text></g><!--link Messaging to Authorization--><g id="link_Messaging_Authorization"><path d="M608.64,105.6969 C738.72,107.6369 998.29,119.8969 1054.89,185.8969 C1097.6,235.6769 1064.7406,313.8227 1042.0206,355.7127 " fill="none" id="Messaging-to-Authorization" style="stroke:#181818;stroke-width:1.0;"/><polygon fill="#181818" points="1039.16,360.9869,1046.967,354.9826,1041.5438,356.5917,1039.9347,351.1685,1039.16,360.9869" style="stroke:#181818;stroke-width:1.0;"/><text fill="#000000" font-family="sans-serif" font-size="13" lengthAdjust="spacing" textLength="36" x="1075.85" y="251.6138">authz</text></g><!--link Files to Auth--><g id="link_Files_Auth"><path d="M357.9,265.4569 C344.36,282.6969 321.83,309.0269 297.89,326.8369 C280.2,340.0069 264.577,348.947 244.987,358.277 " fill="none" id="Files-to-Auth" style="stroke:#181818;stroke-width:1.0;"/><polygon fill="#181818" points="239.57,360.8569,249.4155,360.5983,244.0842,358.7069,245.9756,353.3756,239.57,360.8569" style="stroke:#181818;stroke-width:1.0;"/><text fill="#000000" font-family="sans-serif" font-size="13" lengthAdjust="spacing" textLength="92" x="316.88" y="322.9038">authentication</text></g><!--link Files to Authorization--><g id="link_Files_Authorization"><path d="M387.89,265.4269 C401.11,277.7969 420.58,293.6169 440.89,301.8369 C641.19,382.8469 712.21,313.5969 923.89,356.8369 C929.66,358.0169 929.7586,357.924 935.6886,359.404 " fill="none" id="Files-to-Authorization" style="stroke:#181818;stroke-width:1.0;"/><polygon fill="#181818" points="941.51,360.8569,933.7465,354.7966,936.6588,359.6461,931.8092,362.5585,941.51,360.8569" style="stroke:#181818;stroke-width:1.0;"/><text fill="#000000" font-family="sans-serif" font-size="13" lengthAdjust="spacing" textLength="36" x="508.88" y="322.9038">authz</text></g><!--link Calls to Auth--><g id="link_Calls_Auth"><path d="M318.68,110.5169 C233.42,119.6269 72.27,142.2769 37.89,185.8969 C6,226.3669 12.74,256.8669 37.89,301.8369 C52.72,328.3469 74.2494,344.8422 100.3794,358.2222 " fill="none" id="Calls-to-Auth" style="stroke:#181818;stroke-width:1.0;"/><polygon fill="#181818" points="105.72,360.9569,99.5323,353.2945,101.2695,358.678,95.886,360.4153,105.72,360.9569" style="stroke:#181818;stroke-width:1.0;"/><text fill="#000000" font-family="sans-serif" font-size="13" lengthAdjust="spacing" textLength="92" x="38.89" y="251.6138">authentication</text></g><!--link Calls to Authorization--><g id="link_Calls_Authorization"><path d="M425.39,126.3969 C430.91,128.1069 436.48,129.6469 441.89,130.8969 C553.83,156.7169 866.24,114.0769 955.89,185.8969 C983.75,208.2069 1007.2025,306.1159 1017.5225,355.0759 " fill="none" id="Calls-to-Authorization" style="stroke:#181818;stroke-width:1.0;"/><polygon fill="#181818" points="1018.76,360.9469,1020.8177,351.3154,1017.7287,356.0544,1012.9897,352.9654,1018.76,360.9469" style="stroke:#181818;stroke-width:1.0;"/><text fill="#000000" font-family="sans-serif" font-size="13" lengthAdjust="spacing" textLength="36" x="1005.5" y="251.6138">authz</text></g><!--SRC=[VPFFRi8m3CRlVGghft7W1JXCMgbssP2siMdI_XoyO4hKDAcIC0actdrfqa9Q2bmWzi-VxI_1SYi8Cg8Q5fnfPKZ_SaO6vgggbIHf8UTOQAoIn9HSrkX-0kkIIxjpvPgOHLa8If8QMOa5GVhcb0paga8kK_XBm7q-Gt0PUdm36l2HaBpRsesJv0mjLxAZlkJD0-sOK5XEV4M3-O8LMln1utfr0EIPmv-KiOMcvVFZ96qAkcoU-R8mmtHwwvLW1blZrbqh3NpLjBSxZ_baGvtA7MkiqevccZoBmYI7Q6bdMhMLt78wMprEnGP4yS5MFR6nnIAWtSrxg3JV3oriuX-qEZbuX0PDMz0rJ3lK7LlvUABEm5Et6TIaAsvCSs0ROgKPhJeVkw_JAOU-8_Qs3sHWy8ACmOBBecVlCJhOCyGxPnTA5YhFWgtj8QZUSp6uC1zfxnI5C97Bx_JpyZeF9ljSuhdJPCrgiNm_4thDOEs-GN3P-jU7mlFrhzQzMBbM8qpxiB7tXxh0nVVN5Ep3p66Mws9zve9GyEYwK9yv5phy0m00]--></g></svg>