<svg xmlns="http://www.w3.org/2000/svg" xmlns:xlink="http://www.w3.org/1999/xlink" contentStyleType="text/css" height="757px" preserveAspectRatio="none" style="width:1235px;height:757px;background:#FFFFFF;" version="1.1" viewBox="0 0 1235 757" width="1235px" zoomAndPan="magnify"><defs/><g><text fill="#000000" font-family="sans-serif" font-size="14" font-weight="bold" lengthAdjust="spacing" textLength="259" x="481.095" y="22.9951">Beep Microservices Context Map</text><!--cluster Users Domain--><g id="cluster_Users Domain"><rect fill="none" height="310.37" rx="2.5" ry="2.5" style="stroke:#000000;stroke-width:1.5;" width="218" x="7" y="440.9769"/><text fill="#000000" font-family="sans-serif" font-size="14" font-weight="bold" lengthAdjust="spacing" textLength="109" x="61.5" y="455.972">Users Domain</text></g><!--cluster Communities Domain--><g id="cluster_Communities Domain"><rect fill="none" height="325.22" rx="2.5" ry="2.5" style="stroke:#000000;stroke-width:1.5;" width="234" x="329" y="249.7869"/><text fill="#000000" font-family="sans-serif" font-size="14" font-weight="bold" lengthAdjust="spacing" textLength="165" x="363.5" y="264.782">Communities Domain</text></g><!--cluster Communication Domain--><g id="cluster_Communication Domain"><rect fill="none" height="347.68" rx="2.5" ry="2.5" style="stroke:#000000;stroke-width:1.5;" width="443" x="642" y="44.2969"/><text fill="#000000" font-family="sans-serif" font-size="14" font-weight="bold" lengthAdjust="spacing" textLength="184" x="771.5" y="59.292">Communication Domain</text></g><!--class UsersService--><g id="elem_UsersService"><rect codeLine="8" fill="#F1F1F1" height="91.1875" id="UsersService" rx="2.5" ry="2.5" style="stroke:#181818;stroke-width:0.5;" width="126" x="23" y="475.9769"/><ellipse cx="38" cy="513.5706" fill="#ADD1B2" rx="11" ry="11" style="stroke:#181818;stroke-width:1.0;"/><path d="M40.9688,519.2113 Q40.3906,519.5081 39.75,519.6488 Q39.1094,519.805 38.4063,519.805 Q35.9063,519.805 34.5781,518.1644 Q33.2656,516.5081 33.2656,513.3831 Q33.2656,510.2581 34.5781,508.6019 Q35.9063,506.9456 38.4063,506.9456 Q39.1094,506.9456 39.75,507.1019 Q40.4063,507.2581 40.9688,507.555 L40.9688,510.2737 Q40.3438,509.6956 39.75,509.43 Q39.1563,509.1487 38.5313,509.1487 Q37.1875,509.1487 36.5,510.2269 Q35.8125,511.2894 35.8125,513.3831 Q35.8125,515.4769 36.5,516.555 Q37.1875,517.6175 38.5313,517.6175 Q39.1563,517.6175 39.75,517.3519 Q40.3438,517.0706 40.9688,516.4925 L40.9688,519.2113 Z " fill="#000000"/><text fill="#000000" font-family="sans-serif" font-size="14" lengthAdjust="spacing" textLength="94" x="52" y="493.972">Users Service</text><text fill="#000000" font-family="sans-serif" font-size="14" lengthAdjust="spacing" textLength="70" x="64" y="510.2689">- User info</text><text fill="#000000" font-family="sans-serif" font-size="14" lengthAdjust="spacing" textLength="92" x="53" y="526.5657">- Registration</text><text fill="#000000" font-family="sans-serif" font-size="14" lengthAdjust="spacing" textLength="89" x="54.5" y="542.8626">- Friendships</text><line style="stroke:#181818;stroke-width:0.5;" x1="24" x2="148" y1="551.1644" y2="551.1644"/><line style="stroke:#181818;stroke-width:0.5;" x1="24" x2="148" y1="559.1644" y2="559.1644"/></g><!--class AuthService--><g id="elem_AuthService"><rect codeLine="9" fill="#F1F1F1" height="91.1875" id="AuthService" rx="2.5" ry="2.5" style="stroke:#181818;stroke-width:0.5;" width="186" x="23" y="644.1569"/><ellipse cx="38" cy="681.7506" fill="#ADD1B2" rx="11" ry="11" style="stroke:#181818;stroke-width:1.0;"/><path d="M40.9688,687.3912 Q40.3906,687.6881 39.75,687.8287 Q39.1094,687.985 38.4063,687.985 Q35.9063,687.985 34.5781,686.3444 Q33.2656,684.6881 33.2656,681.5631 Q33.2656,678.4381 34.5781,676.7819 Q35.9063,675.1256 38.4063,675.1256 Q39.1094,675.1256 39.75,675.2819 Q40.4063,675.4381 40.9688,675.735 L40.9688,678.4537 Q40.3438,677.8756 39.75,677.61 Q39.1563,677.3287 38.5313,677.3287 Q37.1875,677.3287 36.5,678.4069 Q35.8125,679.4694 35.8125,681.5631 Q35.8125,683.6569 36.5,684.735 Q37.1875,685.7975 38.5313,685.7975 Q39.1563,685.7975 39.75,685.5319 Q40.3438,685.2506 40.9688,684.6725 L40.9688,687.3912 Z " fill="#000000"/><text fill="#000000" font-family="sans-serif" font-size="14" lengthAdjust="spacing" textLength="154" x="52" y="662.152">Authentication Service</text><text fill="#000000" font-family="sans-serif" font-size="14" lengthAdjust="spacing" textLength="71" x="93.5" y="678.4489">(Keycloak)</text><text fill="#000000" font-family="sans-serif" font-size="14" lengthAdjust="spacing" textLength="111" x="73.5" y="694.7457">- Auth &amp; Identity</text><text fill="#000000" font-family="sans-serif" font-size="14" lengthAdjust="spacing" textLength="115" x="71.5" y="711.0426">- PostgreSQL DB</text><line style="stroke:#181818;stroke-width:0.5;" x1="24" x2="208" y1="719.3444" y2="719.3444"/><line style="stroke:#181818;stroke-width:0.5;" x1="24" x2="208" y1="727.3444" y2="727.3444"/></g><!--class CommunitiesService--><g id="elem_CommunitiesService"><rect codeLine="13" fill="#F1F1F1" height="91.1875" id="CommunitiesService" rx="2.5" ry="2.5" style="stroke:#181818;stroke-width:0.5;" width="177" x="344.5" y="284.7869"/><ellipse cx="359.5" cy="322.3806" fill="#ADD1B2" rx="11" ry="11" style="stroke:#181818;stroke-width:1.0;"/><path d="M362.4688,328.0212 Q361.8906,328.3181 361.25,328.4587 Q360.6094,328.615 359.9063,328.615 Q357.4063,328.615 356.0781,326.9744 Q354.7656,325.3181 354.7656,322.1931 Q354.7656,319.0681 356.0781,317.4119 Q357.4063,315.7556 359.9063,315.7556 Q360.6094,315.7556 361.25,315.9119 Q361.9063,316.0681 362.4688,316.365 L362.4688,319.0837 Q361.8438,318.5056 361.25,318.24 Q360.6563,317.9587 360.0313,317.9587 Q358.6875,317.9587 358,319.0369 Q357.3125,320.0994 357.3125,322.1931 Q357.3125,324.2869 358,325.365 Q358.6875,326.4275 360.0313,326.4275 Q360.6563,326.4275 361.25,326.1619 Q361.8438,325.8806 362.4688,325.3025 L362.4688,328.0212 Z " fill="#000000"/><text fill="#000000" font-family="sans-serif" font-size="14" lengthAdjust="spacing" textLength="145" x="373.5" y="302.782">Communities Service</text><text fill="#000000" font-family="sans-serif" font-size="14" lengthAdjust="spacing" textLength="61" x="415.5" y="319.0789">- Servers</text><text fill="#000000" font-family="sans-serif" font-size="14" lengthAdjust="spacing" textLength="74" x="409" y="335.3757">- Members</text><text fill="#000000" font-family="sans-serif" font-size="14" lengthAdjust="spacing" textLength="74" x="409" y="351.6726">- Channels</text><line style="stroke:#181818;stroke-width:0.5;" x1="345.5" x2="520.5" y1="359.9744" y2="359.9744"/><line style="stroke:#181818;stroke-width:0.5;" x1="345.5" x2="520.5" y1="367.9744" y2="367.9744"/></g><!--class AuthzService--><g id="elem_AuthzService"><rect codeLine="14" fill="#F1F1F1" height="74.8906" id="AuthzService" rx="2.5" ry="2.5" style="stroke:#181818;stroke-width:0.5;" width="203" x="344.5" y="484.1169"/><ellipse cx="359.5" cy="513.5622" fill="#ADD1B2" rx="11" ry="11" style="stroke:#181818;stroke-width:1.0;"/><path d="M362.4688,519.2028 Q361.8906,519.4997 361.25,519.6403 Q360.6094,519.7966 359.9063,519.7966 Q357.4063,519.7966 356.0781,518.1559 Q354.7656,516.4997 354.7656,513.3747 Q354.7656,510.2497 356.0781,508.5934 Q357.4063,506.9372 359.9063,506.9372 Q360.6094,506.9372 361.25,507.0934 Q361.9063,507.2497 362.4688,507.5466 L362.4688,510.2653 Q361.8438,509.6872 361.25,509.4216 Q360.6563,509.1403 360.0313,509.1403 Q358.6875,509.1403 358,510.2184 Q357.3125,511.2809 357.3125,513.3747 Q357.3125,515.4684 358,516.5466 Q358.6875,517.6091 360.0313,517.6091 Q360.6563,517.6091 361.25,517.3434 Q361.8438,517.0622 362.4688,516.4841 L362.4688,519.2028 Z " fill="#000000"/><text fill="#000000" font-family="sans-serif" font-size="14" lengthAdjust="spacing" textLength="145" x="386.5" y="502.112">Authorization Service</text><text fill="#000000" font-family="sans-serif" font-size="14" lengthAdjust="spacing" textLength="152" x="383" y="518.4089">- Roles &amp; Permissions</text><text fill="#000000" font-family="sans-serif" font-size="14" lengthAdjust="spacing" textLength="171" x="373.5" y="534.7057">- Shared across domains</text><line style="stroke:#181818;stroke-width:0.5;" x1="345.5" x2="546.5" y1="543.0075" y2="543.0075"/><line style="stroke:#181818;stroke-width:0.5;" x1="345.5" x2="546.5" y1="551.0075" y2="551.0075"/></g><!--class MessagingService--><g id="elem_MessagingService"><rect codeLine="18" fill="#F1F1F1" height="107.4844" id="MessagingService" rx="2.5" ry="2.5" style="stroke:#181818;stroke-width:0.5;" width="170" x="666" y="79.2969"/><ellipse cx="681" cy="125.0391" fill="#ADD1B2" rx="11" ry="11" style="stroke:#181818;stroke-width:1.0;"/><path d="M683.9688,130.6797 Q683.3906,130.9766 682.75,131.1172 Q682.1094,131.2734 681.4063,131.2734 Q678.9063,131.2734 677.5781,129.6328 Q676.2656,127.9766 676.2656,124.8516 Q676.2656,121.7266 677.5781,120.0703 Q678.9063,118.4141 681.4063,118.4141 Q682.1094,118.4141 682.75,118.5703 Q683.4063,118.7266 683.9688,119.0234 L683.9688,121.7422 Q683.3438,121.1641 682.75,120.8984 Q682.1563,120.6172 681.5313,120.6172 Q680.1875,120.6172 679.5,121.6953 Q678.8125,122.7578 678.8125,124.8516 Q678.8125,126.9453 679.5,128.0234 Q680.1875,129.0859 681.5313,129.0859 Q682.1563,129.0859 682.75,128.8203 Q683.3438,128.5391 683.9688,127.9609 L683.9688,130.6797 Z " fill="#000000"/><text fill="#000000" font-family="sans-serif" font-size="14" lengthAdjust="spacing" textLength="129" x="699.5" y="97.292">Messaging Service</text><text fill="#000000" font-family="sans-serif" font-size="14" lengthAdjust="spacing" textLength="138" x="695" y="113.5889">- Messages lifecycle</text><text fill="#000000" font-family="sans-serif" font-size="14" lengthAdjust="spacing" textLength="78" x="725" y="129.8857">- MongoDB</text><text fill="#000000" font-family="sans-serif" font-size="14" lengthAdjust="spacing" textLength="57" x="735.5" y="146.1826">- Search</text><text fill="#000000" font-family="sans-serif" font-size="14" lengthAdjust="spacing" textLength="93" x="717.5" y="162.4795">- Notifications</text><line style="stroke:#181818;stroke-width:0.5;" x1="667" x2="835" y1="170.7813" y2="170.7813"/><line style="stroke:#181818;stroke-width:0.5;" x1="667" x2="835" y1="178.7813" y2="178.7813"/></g><!--class FilesService--><g id="elem_FilesService"><rect codeLine="19" fill="#F1F1F1" height="91.1875" id="FilesService" rx="2.5" ry="2.5" style="stroke:#181818;stroke-width:0.5;" width="186" x="658" y="284.7869"/><ellipse cx="673" cy="322.3806" fill="#ADD1B2" rx="11" ry="11" style="stroke:#181818;stroke-width:1.0;"/><path d="M675.9688,328.0212 Q675.3906,328.3181 674.75,328.4587 Q674.1094,328.615 673.4063,328.615 Q670.9063,328.615 669.5781,326.9744 Q668.2656,325.3181 668.2656,322.1931 Q668.2656,319.0681 669.5781,317.4119 Q670.9063,315.7556 673.4063,315.7556 Q674.1094,315.7556 674.75,315.9119 Q675.4063,316.0681 675.9688,316.365 L675.9688,319.0837 Q675.3438,318.5056 674.75,318.24 Q674.1563,317.9587 673.5313,317.9587 Q672.1875,317.9587 671.5,319.0369 Q670.8125,320.0994 670.8125,322.1931 Q670.8125,324.2869 671.5,325.365 Q672.1875,326.4275 673.5313,326.4275 Q674.1563,326.4275 674.75,326.1619 Q675.3438,325.8806 675.9688,325.3025 L675.9688,328.0212 Z " fill="#000000"/><text fill="#000000" font-family="sans-serif" font-size="14" lengthAdjust="spacing" textLength="85" x="721.5" y="302.782">Files Service</text><text fill="#000000" font-family="sans-serif" font-size="14" lengthAdjust="spacing" textLength="40" x="744" y="319.0789">- CDN</text><text fill="#000000" font-family="sans-serif" font-size="14" lengthAdjust="spacing" textLength="89" x="719.5" y="335.3757">- File storage</text><text fill="#000000" font-family="sans-serif" font-size="14" lengthAdjust="spacing" textLength="154" x="687" y="351.6726">- Public/Private access</text><line style="stroke:#181818;stroke-width:0.5;" x1="659" x2="843" y1="359.9744" y2="359.9744"/><line style="stroke:#181818;stroke-width:0.5;" x1="659" x2="843" y1="367.9744" y2="367.9744"/></g><!--class CallsService--><g id="elem_CallsService"><rect codeLine="20" fill="#F1F1F1" height="74.8906" id="CallsService" rx="2.5" ry="2.5" style="stroke:#181818;stroke-width:0.5;" width="190" x="879" y="292.9369"/><ellipse cx="894" cy="322.3822" fill="#ADD1B2" rx="11" ry="11" style="stroke:#181818;stroke-width:1.0;"/><path d="M896.9688,328.0228 Q896.3906,328.3197 895.75,328.4603 Q895.1094,328.6166 894.4063,328.6166 Q891.9063,328.6166 890.5781,326.9759 Q889.2656,325.3197 889.2656,322.1947 Q889.2656,319.0697 890.5781,317.4134 Q891.9063,315.7572 894.4063,315.7572 Q895.1094,315.7572 895.75,315.9134 Q896.4063,316.0697 896.9688,316.3666 L896.9688,319.0853 Q896.3438,318.5072 895.75,318.2416 Q895.1563,317.9603 894.5313,317.9603 Q893.1875,317.9603 892.5,319.0384 Q891.8125,320.1009 891.8125,322.1947 Q891.8125,324.2884 892.5,325.3666 Q893.1875,326.4291 894.5313,326.4291 Q895.1563,326.4291 895.75,326.1634 Q896.3438,325.8822 896.9688,325.3041 L896.9688,328.0228 Z " fill="#000000"/><text fill="#000000" font-family="sans-serif" font-size="14" lengthAdjust="spacing" textLength="86" x="944" y="310.932">Calls Service</text><text fill="#000000" font-family="sans-serif" font-size="14" lengthAdjust="spacing" textLength="69" x="952.5" y="327.2289">- WebRTC</text><text fill="#000000" font-family="sans-serif" font-size="14" lengthAdjust="spacing" textLength="158" x="908" y="343.5257">- Real-time audio/video</text><line style="stroke:#181818;stroke-width:0.5;" x1="880" x2="1068" y1="351.8275" y2="351.8275"/><line style="stroke:#181818;stroke-width:0.5;" x1="880" x2="1068" y1="359.8275" y2="359.8275"/></g><!--link UsersService to AuthService--><g id="link_UsersService_AuthService"><path codeLine="24" d="M94.12,567.5369 C98.39,591.1869 102.5444,614.1823 106.8144,637.8423 " fill="none" id="UsersService-to-AuthService" style="stroke:#181818;stroke-width:1.0;"/><polygon fill="#181818" points="107.88,643.7469,110.218,634.1795,106.992,638.8264,102.3452,635.6004,107.88,643.7469" style="stroke:#181818;stroke-width:1.0;"/><text fill="#000000" font-family="sans-serif" font-size="13" lengthAdjust="spacing" textLength="30" x="102.9" y="610.2238">uses</text></g><!--link CommunitiesService to UsersService--><g id="link_CommunitiesService_UsersService"><path codeLine="25" d="M344.16,356.7169 C290.38,371.2469 220.2,388.7569 157,399.9769 C140.71,402.8669 94.05,395.6669 83,407.9769 C66.87,425.9469 65.8564,446.8869 70.3164,469.8569 " fill="none" id="CommunitiesService-to-UsersService" style="stroke:#181818;stroke-width:1.0;"/><polygon fill="#181818" points="71.46,475.7469,73.6712,466.1495,70.507,470.8385,65.8179,467.6743,71.46,475.7469" style="stroke:#181818;stroke-width:1.0;"/><text fill="#000000" font-family="sans-serif" font-size="13" lengthAdjust="spacing" textLength="119" x="84" y="421.0438">references User ID</text></g><!--link CommunitiesService to AuthService--><g id="link_CommunitiesService_AuthService"><path codeLine="26" d="M344.4,362.0769 C307.21,378.4769 265.78,401.8169 236,432.9769 C185.28,486.0269 198.28,516.6069 167,583.0069 C157.58,603.0169 149.594,619.6562 140.514,638.4162 " fill="none" id="CommunitiesService-to-AuthService" style="stroke:#181818;stroke-width:1.0;"/><polygon fill="#181818" points="137.9,643.8169,145.4214,637.4585,140.0783,639.3163,138.2205,633.9732,137.9,643.8169" style="stroke:#181818;stroke-width:1.0;"/><text fill="#000000" font-family="sans-serif" font-size="13" lengthAdjust="spacing" textLength="89" x="237" y="526.1338">enforces Auth</text></g><!--link CommunitiesService to AuthzService--><g id="link_CommunitiesService_AuthzService"><path codeLine="27" d="M436.08,376.2169 C438.33,408.9969 440.9375,446.9311 443.0575,477.6911 " fill="none" id="CommunitiesService-to-AuthzService" style="stroke:#181818;stroke-width:1.0;"/><polygon fill="#181818" points="443.47,483.6769,446.8417,474.4231,443.1262,478.6887,438.8606,474.9732,443.47,483.6769" style="stroke:#181818;stroke-width:1.0;"/><text fill="#000000" font-family="sans-serif" font-size="13" lengthAdjust="spacing" textLength="30" x="440.11" y="421.0438">uses</text></g><!--link MessagingService to UsersService--><g id="link_MessagingService_UsersService"><path codeLine="28" d="M665.91,134.0469 C553.59,137.6469 353.13,156.7869 208,241.7869 C124.17,290.8769 99.64,316.8269 66,407.9769 C58.06,429.4869 59.7077,448.7389 65.7177,469.7189 " fill="none" id="MessagingService-to-UsersService" style="stroke:#181818;stroke-width:1.0;"/><polygon fill="#181818" points="67.37,475.4869,68.7369,465.7333,65.9931,470.6802,61.0462,467.9364,67.37,475.4869" style="stroke:#181818;stroke-width:1.0;"/><text fill="#000000" font-family="sans-serif" font-size="13" lengthAdjust="spacing" textLength="119" x="209" y="334.9438">references User ID</text></g><!--link MessagingService to AuthService--><g id="link_MessagingService_AuthService"><path codeLine="29" d="M836.49,149.6469 C925.85,167.8969 1057.17,200.8969 1087,241.7869 C1177.84,366.3069 1144.6,485.7769 1025,583.0069 C962.48,633.8469 434.1694,670.1606 215.0994,683.1906 " fill="none" id="MessagingService-to-AuthService" style="stroke:#181818;stroke-width:1.0;"/><polygon fill="#181818" points="209.11,683.5469,218.3316,687.0055,214.1012,683.25,217.8566,679.0196,209.11,683.5469" style="stroke:#181818;stroke-width:1.0;"/><text fill="#000000" font-family="sans-serif" font-size="13" lengthAdjust="spacing" textLength="89" x="1138.19" y="421.0438">enforces Auth</text></g><!--link MessagingService to AuthzService--><g id="link_MessagingService_AuthzService"><path codeLine="30" d="M666.3,187.2669 C645.71,203.0069 625.03,221.5169 609,241.7869 C561.31,302.0869 578.31,333.9069 539,399.9769 C521.29,429.7369 501.1832,456.001 482.0332,479.061 " fill="none" id="MessagingService-to-AuthzService" style="stroke:#181818;stroke-width:1.0;"/><polygon fill="#181818" points="478.2,483.6769,487.0271,479.3085,481.3944,479.8303,480.8726,474.1976,478.2,483.6769" style="stroke:#181818;stroke-width:1.0;"/><text fill="#000000" font-family="sans-serif" font-size="13" lengthAdjust="spacing" textLength="30" x="610" y="334.9438">uses</text></g><!--link FilesService to AuthService--><g id="link_FilesService_AuthService"><path codeLine="31" d="M729.97,376.3669 C700.8,433.6069 642.53,531.2669 563,583.0069 C454.88,653.3569 310.9197,676.5341 215.1697,684.4241 " fill="none" id="FilesService-to-AuthService" style="stroke:#181818;stroke-width:1.0;"/><polygon fill="#181818" points="209.19,684.9169,218.4881,688.1642,214.1731,684.5063,217.8311,680.1913,209.19,684.9169" style="stroke:#181818;stroke-width:1.0;"/><text fill="#000000" font-family="sans-serif" font-size="13" lengthAdjust="spacing" textLength="89" x="697.48" y="526.1338">enforces Auth</text></g><!--link FilesService to AuthzService--><g id="link_FilesService_AuthzService"><path codeLine="32" d="M689.49,376.2669 C667.01,392.1569 641.17,409.8269 617,424.9769 C584.29,445.4669 552.2355,463.7002 520.8255,480.8602 " fill="none" id="FilesService-to-AuthzService" style="stroke:#181818;stroke-width:1.0;"/><polygon fill="#181818" points="515.56,483.7369,525.3759,482.9322,519.9479,481.3397,521.5404,475.9116,515.56,483.7369" style="stroke:#181818;stroke-width:1.0;"/><text fill="#000000" font-family="sans-serif" font-size="13" lengthAdjust="spacing" textLength="30" x="644.27" y="421.0438">uses</text></g><!--link CallsService to AuthService--><g id="link_CallsService_AuthService"><path codeLine="33" d="M959.2,368.0469 C934.37,424.4269 878.69,531.2969 795,583.0069 C698.65,642.5469 377.6758,671.5239 215.2058,682.7339 " fill="none" id="CallsService-to-AuthService" style="stroke:#181818;stroke-width:1.0;"/><polygon fill="#181818" points="209.22,683.1469,218.474,686.5179,214.2081,682.8027,217.9233,678.5369,209.22,683.1469" style="stroke:#181818;stroke-width:1.0;"/><text fill="#000000" font-family="sans-serif" font-size="13" lengthAdjust="spacing" textLength="89" x="927.25" y="526.1338">enforces Auth</text></g><!--link CallsService to AuthzService--><g id="link_CallsService_AuthzService"><path codeLine="34" d="M922.29,368.1469 C903.71,379.8769 882.11,391.8969 861,399.9769 C786.67,428.4169 761.74,411.8769 685,432.9769 C634.72,446.7969 585.6039,464.3171 541.2339,481.5271 " fill="none" id="CallsService-to-AuthzService" style="stroke:#181818;stroke-width:1.0;"/><polygon fill="#181818" points="535.64,483.6969,545.4774,484.1715,540.3016,481.8888,542.5844,476.713,535.64,483.6969" style="stroke:#181818;stroke-width:1.0;"/><text fill="#000000" font-family="sans-serif" font-size="13" lengthAdjust="spacing" textLength="30" x="837.2" y="421.0438">uses</text></g><!--link MessagingService to FilesService--><g id="link_MessagingService_FilesService"><path codeLine="37" d="M751,187.1569 C751,217.6669 751,249.5469 751,278.5369 " fill="none" id="MessagingService-to-FilesService" style="stroke:#181818;stroke-width:1.0;"/><polygon fill="#181818" points="751,284.5369,755,275.5369,751,279.5369,747,275.5369,751,284.5369" style="stroke:#181818;stroke-width:1.0;"/><text fill="#000000" font-family="sans-serif" font-size="13" lengthAdjust="spacing" textLength="57" x="752" y="229.8538">links files</text></g><!--link MessagingService to CallsService--><g id="link_MessagingService_CallsService"><path codeLine="38" d="M811.64,187.1569 C849.82,220.5969 893.6068,258.9532 927.5668,288.7032 " fill="none" id="MessagingService-to-CallsService" style="stroke:#181818;stroke-width:1.0;"/><polygon fill="#181818" points="932.08,292.6569,927.946,283.7176,928.319,289.3622,922.6745,289.7352,932.08,292.6569" style="stroke:#181818;stroke-width:1.0;"/><text fill="#000000" font-family="sans-serif" font-size="13" lengthAdjust="spacing" textLength="120" x="863.5" y="229.8538">links call metadata</text></g><!--SRC=[ZLF1Zjem4BtdAwOSjkq1SUTG2S9kjUg2A53riXVZ3664OoFReGjL_xtZ9EmwAR3bW9pncpVlZMS-PBWXZR2uJrUZsTUdUv1AE9Uu7UcziAA0lP0xaUFI7nM2HUc5pXL606OGfV8hVF4ZHRakK7kG_8SsIJnvJXiZxc5AqXg7za0I7QI60IyUfcAV94qDwFtWUmSJKmZIFVYT0F_Uf3NNovhZMVSX183qneIF1URal1MUZ0xV3vPGPsvBUzS3uIgmQvAxpAFIRraooIhxhSIdRtYKoeZTvy0OK707Zrc0-cC8pOtpkSNbzoUOZAio0NIkyYVobfgYA3LvmXiEOr3aCnnPV3XEiLWtntGhj4PLkuioRtWqbauTYzmuexZS7SpH5kGStrRqowsmc848p-OWgoIxLukd6nwRBbvrEKNdH4uwZrNKGHQYQ8EIkrv7ZSxDP5mtGLYv3QUPyRHfgjIANXclU7yWrUveEfbLCy9nSDvOhbmzPxbM90TpImVXaRtphDOLAeOhxAbGgiN-4zUBLLeFfL1zJmLpbHcPmO4oDFM3XQIeYHyPgsfBOMHXZVuNeeRpoWoQ5qZYEOP-_qiySJ24qg5B_fs62jbA7V8wRz2Y3ljORTBZv5fYkmJonjcG5SAtKauTMTrd-azH5zDkIRgQq1KKl-gxh1V1NSRuMTzltILmbv4d8mqhsAy786hGPPyjcKDU9xrpi0d1o_YMY3DUSX0Az28JNlm5]--></g></svg>