<svg xmlns="http://www.w3.org/2000/svg" xmlns:xlink="http://www.w3.org/1999/xlink" contentStyleType="text/css" height="452px" preserveAspectRatio="none" style="width:905px;height:452px;background:#FFFFFF;" version="1.1" viewBox="0 0 905 452" width="905px" zoomAndPan="magnify"><defs/><g><text fill="#000000" font-family="sans-serif" font-size="14" font-weight="bold" lengthAdjust="spacing" textLength="247" x="328.25" y="27.9951">gRPC: Friend Request Lifecycle</text><line style="stroke:#181818;stroke-width:0.5;stroke-dasharray:5.0,5.0;" x1="28" x2="28" y1="118.5938" y2="371.6563"/><line style="stroke:#181818;stroke-width:0.5;stroke-dasharray:5.0,5.0;" x1="86" x2="86" y1="118.5938" y2="371.6563"/><line style="stroke:#181818;stroke-width:0.5;stroke-dasharray:5.0,5.0;" x1="389" x2="389" y1="118.5938" y2="371.6563"/><line style="stroke:#181818;stroke-width:0.5;stroke-dasharray:5.0,5.0;" x1="819.5" x2="819.5" y1="118.5938" y2="371.6563"/><text fill="#000000" font-family="sans-serif" font-size="14" lengthAdjust="spacing" textLength="41" x="5" y="115.292">UserA</text><ellipse cx="28.5" cy="50.7969" fill="#E2E2F0" rx="8" ry="8" style="stroke:#181818;stroke-width:0.5;"/><path d="M28.5,58.7969 L28.5,85.7969 M15.5,66.7969 L41.5,66.7969 M28.5,85.7969 L15.5,100.7969 M28.5,85.7969 L41.5,100.7969 " fill="none" style="stroke:#181818;stroke-width:0.5;"/><text fill="#000000" font-family="sans-serif" font-size="14" lengthAdjust="spacing" textLength="41" x="5" y="383.6514">UserA</text><ellipse cx="28.5" cy="395.4531" fill="#E2E2F0" rx="8" ry="8" style="stroke:#181818;stroke-width:0.5;"/><path d="M28.5,403.4531 L28.5,430.4531 M15.5,411.4531 L41.5,411.4531 M28.5,430.4531 L15.5,445.4531 M28.5,430.4531 L41.5,445.4531 " fill="none" style="stroke:#181818;stroke-width:0.5;"/><text fill="#000000" font-family="sans-serif" font-size="14" lengthAdjust="spacing" textLength="42" x="62" y="115.292">UserB</text><ellipse cx="86" cy="50.7969" fill="#E2E2F0" rx="8" ry="8" style="stroke:#181818;stroke-width:0.5;"/><path d="M86,58.7969 L86,85.7969 M73,66.7969 L99,66.7969 M86,85.7969 L73,100.7969 M86,85.7969 L99,100.7969 " fill="none" style="stroke:#181818;stroke-width:0.5;"/><text fill="#000000" font-family="sans-serif" font-size="14" lengthAdjust="spacing" textLength="42" x="62" y="383.6514">UserB</text><ellipse cx="86" cy="395.4531" fill="#E2E2F0" rx="8" ry="8" style="stroke:#181818;stroke-width:0.5;"/><path d="M86,403.4531 L86,430.4531 M73,411.4531 L99,411.4531 M86,430.4531 L73,445.4531 M86,430.4531 L99,445.4531 " fill="none" style="stroke:#181818;stroke-width:0.5;"/><rect fill="#E2E2F0" height="30.2969" rx="2.5" ry="2.5" style="stroke:#181818;stroke-width:0.5;" width="108" x="335" y="87.2969"/><text fill="#000000" font-family="sans-serif" font-size="14" lengthAdjust="spacing" textLength="94" x="342" y="107.292">Users Service</text><rect fill="#E2E2F0" height="30.2969" rx="2.5" ry="2.5" style="stroke:#181818;stroke-width:0.5;" width="108" x="335" y="370.6563"/><text fill="#000000" font-family="sans-serif" font-size="14" lengthAdjust="spacing" textLength="94" x="342" y="390.6514">Users Service</text><rect fill="#E2E2F0" height="30.2969" rx="2.5" ry="2.5" style="stroke:#181818;stroke-width:0.5;" width="159" x="740.5" y="87.2969"/><text fill="#000000" font-family="sans-serif" font-size="14" lengthAdjust="spacing" textLength="145" x="747.5" y="107.292">Communities Service</text><rect fill="#E2E2F0" height="30.2969" rx="2.5" ry="2.5" style="stroke:#181818;stroke-width:0.5;" width="159" x="740.5" y="370.6563"/><text fill="#000000" font-family="sans-serif" font-size="14" lengthAdjust="spacing" textLength="145" x="747.5" y="390.6514">Communities Service</text><polygon fill="#181818" points="377,145.7266,387,149.7266,377,153.7266,381,149.7266" style="stroke:#181818;stroke-width:1.0;"/><line style="stroke:#181818;stroke-width:1.0;" x1="28.5" x2="383" y1="149.7266" y2="149.7266"/><text fill="#000000" font-family="sans-serif" font-size="13" lengthAdjust="spacing" textLength="238" x="35.5" y="144.6606">POST /friends/request (target: UserB)</text><polygon fill="#181818" points="808,174.8594,818,178.8594,808,182.8594,812,178.8594" style="stroke:#181818;stroke-width:1.0;"/><line style="stroke:#181818;stroke-width:1.0;" x1="389" x2="814" y1="178.8594" y2="178.8594"/><text fill="#000000" font-family="sans-serif" font-size="13" lengthAdjust="spacing" textLength="407" x="396" y="173.7935">gRPC FriendRequestSent(sender_id=UserA, receiver_id=UserB)</text><polygon fill="#181818" points="400,203.9922,390,207.9922,400,211.9922,396,207.9922" style="stroke:#181818;stroke-width:1.0;"/><line style="stroke:#181818;stroke-width:1.0;stroke-dasharray:2.0,2.0;" x1="394" x2="819" y1="207.9922" y2="207.9922"/><text fill="#000000" font-family="sans-serif" font-size="13" lengthAdjust="spacing" textLength="55" x="406" y="202.9263">Ack (OK)</text><polygon fill="#181818" points="39.5,233.125,29.5,237.125,39.5,241.125,35.5,237.125" style="stroke:#181818;stroke-width:1.0;"/><line style="stroke:#181818;stroke-width:1.0;stroke-dasharray:2.0,2.0;" x1="33.5" x2="388" y1="237.125" y2="237.125"/><text fill="#000000" font-family="sans-serif" font-size="13" lengthAdjust="spacing" textLength="53" x="45.5" y="232.0591">Success</text><polygon fill="#181818" points="377,262.2578,387,266.2578,377,270.2578,381,266.2578" style="stroke:#181818;stroke-width:1.0;"/><line style="stroke:#181818;stroke-width:1.0;" x1="86" x2="383" y1="266.2578" y2="266.2578"/><text fill="#000000" font-family="sans-serif" font-size="13" lengthAdjust="spacing" textLength="279" x="93" y="261.1919">POST /friends/accept (request_from: UserA)</text><polygon fill="#181818" points="808,291.3906,818,295.3906,808,299.3906,812,295.3906" style="stroke:#181818;stroke-width:1.0;"/><line style="stroke:#181818;stroke-width:1.0;" x1="389" x2="814" y1="295.3906" y2="295.3906"/><text fill="#000000" font-family="sans-serif" font-size="13" lengthAdjust="spacing" textLength="378" x="396" y="290.3247">gRPC FriendRequestAccepted(user1=UserA, user2=UserB)</text><polygon fill="#181818" points="400,320.5234,390,324.5234,400,328.5234,396,324.5234" style="stroke:#181818;stroke-width:1.0;"/><line style="stroke:#181818;stroke-width:1.0;stroke-dasharray:2.0,2.0;" x1="394" x2="819" y1="324.5234" y2="324.5234"/><text fill="#000000" font-family="sans-serif" font-size="13" lengthAdjust="spacing" textLength="55" x="406" y="319.4575">Ack (OK)</text><polygon fill="#181818" points="97,349.6563,87,353.6563,97,357.6563,93,353.6563" style="stroke:#181818;stroke-width:1.0;"/><line style="stroke:#181818;stroke-width:1.0;stroke-dasharray:2.0,2.0;" x1="91" x2="388" y1="353.6563" y2="353.6563"/><text fill="#000000" font-family="sans-serif" font-size="13" lengthAdjust="spacing" textLength="53" x="103" y="348.5903">Success</text><!--SRC=[dOzFImCn4CNl-HH3JojOYXuN5B85BmejNJsNC3jR1hj_dCmM_FQcsMZJWmUzPMPUtdi_PJqI77RRTGbFmjGtiAEFYRp22xU4dtWaOnpg8F3cIMpshemPdIWZZwvNM9nt7cgI4oCjmFceyjUYzT1rKy_AT2tDziR495W-pWPGmdPJlyAgZGNzIbB3GfqSICkvpOsPrU5R7b96kWINs6hgjV1X9jbpyn3ZRa48YK-NLN3CZPPP7ullK6oUVoBJoOPJFI6I3n3nLlrEuO9k3129Pj_AqCqezWyeDhfGKqpXnzqtodcu_oT4TO7u0W00]--></g></svg>